<?xml version="1.0"?>
<svg xmlns="http://www.w3.org/2000/svg" id="outline" viewBox="0 0 512 512" width="512" height="512"><path d="M488,232H466.98022C475.45215,224.93622,480,216.75012,480,208c0-22.73041-30.85156-40.81628-75.282-46.29047l9.68237-12.90973A8.00222,8.00222,0,0,0,416,144V128a40,40,0,0,0-80,0v16a8.00366,8.00366,0,0,0,1.59961,4.80029l9.68213,12.90924C302.85156,167.18372,272,185.26965,272,208c0,8.75012,4.54785,16.93622,13.01978,24H264a8.00008,8.00008,0,0,0-8,8v32a8.00008,8.00008,0,0,0,8,8h8V448h-8a8.00008,8.00008,0,0,0-8,8v32a8.00008,8.00008,0,0,0,8,8H488a8.00008,8.00008,0,0,0,8-8V456a8.00008,8.00008,0,0,0-8-8h-8V280h8a8.00008,8.00008,0,0,0,8-8V240A8.00008,8.00008,0,0,0,488,232ZM352,141.3335V128a24,24,0,0,1,48,0v13.3335l-14.14771,18.86316Q380.99927,160.00476,376,160q-4.99878,0-9.85156.19659ZM288,208c0-15.10547,37.63379-32,88-32s88,16.89453,88,32c0,7.37109-9.53027,15.47791-24.873,21.56885A18.62845,18.62845,0,0,0,440,224c0-5.68262-2.76074-16.39941-21.251-24.32373C407.19922,194.72607,392.0166,192,376,192c-2.83789,0-5.69434.08691-8.48926.2583l.97852,15.96973C370.96,208.07666,373.4873,208,376,208c29.77637,0,48,10.35938,48,16,0,1.89075-2.54639,5.012-8.16846,8h-96.1853C300.38257,225.76184,288,216.40277,288,208ZM480,480H272V464H480ZM464,304H408v16h56v24H352v16H464v16H408v16h56v16H352v16H464v24H288V424h48V408H288V392H392V376H288V360h48V344H288V320h32V304H288V280H464Zm16-40H272V248H480Z"/><path d="M332.794,199.874l6.4121,14.65918a71.961,71.961,0,0,1,14.38965-4.38427l-3.1914-15.67872A87.88455,87.88455,0,0,0,332.794,199.874Z"/><path d="M392,128a8.00008,8.00008,0,0,0-8-8H368a8,8,0,0,0,0,16h16A8.00008,8.00008,0,0,0,392,128Z"/><rect x="344" y="304" width="16" height="16"/><rect x="376" y="304" width="16" height="16"/><path d="M50.34277,493.65674A8.00076,8.00076,0,0,0,56,496H240V480H59.31348L43.31372,464H240V448H200V388.92627a100.28386,100.28386,0,0,0-60.84863-92.2793A84.30268,84.30268,0,0,1,88,219.07373V184h72.84668a100.26045,100.26045,0,0,0,60.002,79.353l6.30274-14.70606A84.28827,84.28827,0,0,1,176.99609,184H256V168H39.54565l28.57129-40H251.8833l26.17822,36.6499,13.01953-9.2998-22.21728-31.10443A23.98986,23.98986,0,0,0,256,80H200V56a40,40,0,0,0-80,0V80H64a23.98986,23.98986,0,0,0-12.86377,44.24567l-33.646,47.10443A8.003,8.003,0,0,0,16,176V456a8.00035,8.00035,0,0,0,2.34277,5.65674ZM32,363.29309A100.0677,100.0677,0,0,0,52.84863,375.353,84.28505,84.28505,0,0,1,103.84326,448H32ZM132.84863,311.353A84.30268,84.30268,0,0,1,184,388.92627V448H119.86523a100.2649,100.2649,0,0,0-60.71386-87.353A83.73194,83.73194,0,0,1,32,341.98981V184H72v35.07373A100.28386,100.28386,0,0,0,132.84863,311.353ZM136,56a24,24,0,0,1,48,0V80H136ZM64,96H256a8,8,0,0,1,0,16H64a8,8,0,0,1,0-16Z"/><path d="M168,48H152a8,8,0,0,0,0,16h16a8,8,0,0,0,0-16Z"/></svg>
