<?xml version="1.0" encoding="UTF-8"?>
<svg xmlns="http://www.w3.org/2000/svg" xmlns:xlink="http://www.w3.org/1999/xlink" width="24pt" height="24pt" viewBox="0 0 24 24" version="1.1">
<g id="surface1">
<path style=" stroke:none;fill-rule:nonzero;fill:rgb(89.019608%,89.411765%,88.627451%);fill-opacity:1;" d="M 15.910156 22.5 L 4.339844 22.5 C 3.808594 22.5 3.300781 22.273438 2.945312 21.878906 C 2.589844 21.480469 2.417969 20.953125 2.476562 20.421875 L 3.476562 11.214844 C 3.824219 8.003906 6.417969 5.503906 9.636719 5.269531 C 9.796875 5.257812 9.960938 5.25 10.125 5.25 C 10.289062 5.25 10.453125 5.257812 10.613281 5.269531 C 13.832031 5.503906 16.425781 8.003906 16.773438 11.214844 L 17.773438 20.421875 C 17.832031 20.953125 17.660156 21.480469 17.304688 21.878906 C 16.949219 22.273438 16.441406 22.5 15.910156 22.5 Z M 15.910156 22.5 "/>
<path style=" stroke:none;fill-rule:nonzero;fill:rgb(89.019608%,89.411765%,88.627451%);fill-opacity:1;" d="M 8.59375 6.375 L 7.28125 1.5 L 12.90625 1.5 L 11.496094 6.375 Z M 8.59375 6.375 "/>
<path style=" stroke:none;fill-rule:nonzero;fill:rgb(0%,57.647059%,72.54902%);fill-opacity:1;" d="M 19.679688 22.5 L 13.320312 22.5 C 12.792969 22.5 12.285156 22.277344 11.929688 21.882812 C 11.574219 21.492188 11.402344 20.964844 11.457031 20.4375 L 11.964844 15.355469 C 12.199219 13.023438 14.160156 11.25 16.5 11.25 C 18.839844 11.25 20.800781 13.023438 21.035156 15.355469 L 21.542969 20.4375 C 21.597656 20.964844 21.425781 21.492188 21.070312 21.882812 C 20.714844 22.277344 20.207031 22.5 19.679688 22.5 Z M 19.679688 22.5 "/>
<path style=" stroke:none;fill-rule:nonzero;fill:rgb(0%,57.647059%,72.54902%);fill-opacity:1;" d="M 15.582031 11.96875 L 14.625 8.625 L 18.375 8.625 L 17.417969 11.96875 Z M 15.582031 11.96875 "/>
<path style=" stroke:none;fill-rule:nonzero;fill:rgb(33.72549%,76.470588%,75.686275%);fill-opacity:1;" d="M 10.332031 16.09375 L 9.375 12.75 L 13.125 12.75 L 12.167969 16.09375 Z M 10.332031 16.09375 "/>
<path style=" stroke:none;fill-rule:nonzero;fill:rgb(33.72549%,76.470588%,75.686275%);fill-opacity:1;" d="M 13.554688 22.5 L 8.945312 22.5 C 8.394531 22.5 7.875 22.261719 7.519531 21.84375 C 7.164062 21.425781 7.007812 20.875 7.09375 20.332031 L 7.347656 18.707031 C 7.625 16.96875 9.019531 15.621094 10.769531 15.40625 C 11.089844 15.363281 11.410156 15.363281 11.730469 15.40625 C 13.480469 15.621094 14.875 16.96875 15.152344 18.707031 L 15.40625 20.332031 C 15.492188 20.875 15.335938 21.425781 14.980469 21.84375 C 14.625 22.261719 14.105469 22.5 13.554688 22.5 Z M 13.554688 22.5 "/>
<path style=" stroke:none;fill-rule:nonzero;fill:rgb(0%,0%,0%);fill-opacity:1;" d="M 15.523438 18.648438 C 15.28125 17.121094 14.238281 15.835938 12.789062 15.285156 L 13.484375 12.851562 C 13.519531 12.738281 13.496094 12.617188 13.425781 12.523438 C 13.355469 12.429688 13.242188 12.375 13.125 12.375 L 9.375 12.375 C 9.257812 12.375 9.144531 12.429688 9.074219 12.523438 C 9.003906 12.617188 8.980469 12.738281 9.015625 12.851562 L 9.710938 15.285156 C 8.261719 15.835938 7.21875 17.121094 6.976562 18.648438 L 6.722656 20.273438 C 6.621094 20.925781 6.804688 21.585938 7.234375 22.085938 C 7.660156 22.585938 8.285156 22.875 8.945312 22.875 L 13.554688 22.875 C 14.214844 22.875 14.839844 22.585938 15.265625 22.085938 C 15.695312 21.585938 15.878906 20.925781 15.777344 20.273438 Z M 9.871094 13.125 L 12.628906 13.125 L 12.070312 15.078125 C 11.527344 14.972656 10.972656 14.972656 10.429688 15.078125 Z M 14.695312 21.597656 C 14.410156 21.933594 13.996094 22.125 13.554688 22.125 L 8.945312 22.125 C 8.503906 22.125 8.089844 21.933594 7.804688 21.597656 C 7.519531 21.265625 7.394531 20.824219 7.460938 20.390625 L 7.71875 18.765625 C 7.945312 17.324219 9.03125 16.164062 10.457031 15.839844 L 9.070312 17.78125 L 9.679688 18.21875 L 10.875 16.546875 L 10.875 18.375 L 11.625 18.375 L 11.625 16.546875 L 12.820312 18.21875 L 13.429688 17.78125 L 12.042969 15.839844 C 13.46875 16.164062 14.554688 17.324219 14.78125 18.765625 L 15.039062 20.390625 C 15.105469 20.824219 14.980469 21.265625 14.695312 21.597656 Z M 14.695312 21.597656 "/>
<path style=" stroke:none;fill-rule:nonzero;fill:rgb(0%,0%,0%);fill-opacity:1;" d="M 21.410156 15.316406 C 21.214844 13.378906 19.898438 11.738281 18.050781 11.125 L 18.734375 8.726562 C 18.769531 8.613281 18.746094 8.492188 18.675781 8.398438 C 18.605469 8.304688 18.492188 8.25 18.375 8.25 L 14.625 8.25 C 14.507812 8.25 14.394531 8.304688 14.324219 8.398438 C 14.253906 8.492188 14.230469 8.613281 14.265625 8.726562 L 14.949219 11.125 C 14.488281 11.277344 14.054688 11.496094 13.660156 11.773438 L 14.089844 12.386719 C 14.542969 12.066406 15.058594 11.839844 15.601562 11.722656 L 13.964844 13.632812 L 14.535156 14.117188 L 16.125 12.265625 L 16.125 14.625 L 16.875 14.625 L 16.875 12.265625 L 18.464844 14.117188 L 19.035156 13.632812 L 17.398438 11.722656 C 19.167969 12.105469 20.488281 13.589844 20.664062 15.390625 L 21.171875 20.476562 C 21.214844 20.898438 21.074219 21.316406 20.789062 21.632812 C 20.507812 21.945312 20.101562 22.125 19.679688 22.125 L 16.125 22.125 L 16.125 22.875 L 19.679688 22.875 C 20.3125 22.875 20.917969 22.605469 21.347656 22.136719 C 21.773438 21.664062 21.980469 21.035156 21.917969 20.402344 Z M 15.121094 9 L 17.878906 9 L 17.320312 10.945312 C 16.777344 10.851562 16.222656 10.851562 15.675781 10.945312 Z M 15.121094 9 "/>
<path style=" stroke:none;fill-rule:nonzero;fill:rgb(0%,0%,0%);fill-opacity:1;" d="M 20.816406 11.039062 C 20.359375 10.625 19.84375 10.277344 19.289062 10.007812 L 18.960938 10.683594 C 20.675781 11.511719 21.863281 13.136719 22.128906 15.023438 L 22.871094 14.917969 C 22.664062 13.425781 21.933594 12.050781 20.816406 11.039062 Z M 20.816406 11.039062 "/>
<path style=" stroke:none;fill-rule:nonzero;fill:rgb(0%,0%,0%);fill-opacity:1;" d="M 3.222656 21.625 C 2.9375 21.308594 2.804688 20.886719 2.847656 20.464844 L 3.847656 11.253906 C 4.160156 8.355469 6.421875 6.046875 9.316406 5.675781 L 7.203125 8.394531 L 7.796875 8.855469 L 9.75 6.34375 L 9.75 9.75 L 10.5 9.75 L 10.5 6.34375 L 12.453125 8.855469 L 13.046875 8.394531 L 10.933594 5.675781 C 12.382812 5.867188 13.722656 6.550781 14.726562 7.617188 L 15.273438 7.101562 C 14.4375 6.214844 13.390625 5.5625 12.226562 5.199219 L 13.265625 1.605469 C 13.300781 1.492188 13.277344 1.367188 13.207031 1.273438 C 13.136719 1.179688 13.023438 1.125 12.90625 1.125 L 7.28125 1.125 C 7.164062 1.125 7.054688 1.179688 6.984375 1.273438 C 6.914062 1.363281 6.886719 1.484375 6.917969 1.597656 L 7.898438 5.234375 C 5.273438 6.101562 3.398438 8.425781 3.105469 11.175781 L 2.101562 20.382812 C 2.035156 21.015625 2.238281 21.652344 2.664062 22.128906 C 3.09375 22.601562 3.699219 22.875 4.339844 22.875 L 6.375 22.875 L 6.375 22.125 L 4.339844 22.125 C 3.914062 22.125 3.507812 21.945312 3.222656 21.625 Z M 7.769531 1.875 L 12.40625 1.875 L 11.5 5.011719 C 11.046875 4.921875 10.585938 4.875 10.125 4.875 C 9.621094 4.875 9.117188 4.929688 8.621094 5.035156 Z M 7.769531 1.875 "/>
<path style=" stroke:none;fill-rule:nonzero;fill:rgb(0%,0%,0%);fill-opacity:1;" d="M 2.359375 11.09375 C 2.59375 8.925781 3.722656 6.957031 5.472656 5.65625 L 5.027344 5.054688 C 3.109375 6.476562 1.871094 8.636719 1.613281 11.011719 L 1.386719 13.085938 L 2.132812 13.164062 Z M 2.359375 11.09375 "/>
<path style=" stroke:none;fill-rule:nonzero;fill:rgb(0%,0%,0%);fill-opacity:1;" d="M 1.222656 14.585938 L 1.304688 13.835938 L 2.050781 13.914062 L 1.96875 14.664062 Z M 1.222656 14.585938 "/>
</g>
</svg>
