<svg xmlns="http://www.w3.org/2000/svg">

  <!-- special -->
  <symbol id="special" viewBox="0 0 24 24">
    <path d="M21.129 2.89H2.87l1.707 19.04a1.887 1.887 0 0 0 1.883 1.718h11.078c.98 0 1.797-.746 1.883-1.718zm0 0" fill="#ffd064"/>
    <path d="M18.176 2.89l-1.707 19.04a1.887 1.887 0 0 1-1.883 1.718h2.953c.98 0 1.797-.746 1.883-1.718l1.707-19.04zm0 0" fill="#ffc250"/>
    <path d="M22.34 5.797H1.66a.776.776 0 0 1-.777-.774V3.391c0-.426.347-.774.777-.774h20.68c.43 0 .777.348.777.774v1.632a.776.776 0 0 1-.777.774zm0 0" fill="#8e99a3"/>
    <path d="M22.34 2.617h-2.2v2.406a.776.776 0 0 1-.777.774h2.977c.43 0 .777-.348.777-.774V3.391a.776.776 0 0 0-.777-.774zm0 0" fill="#7f8993"/>
    <path d="M18.246 14.484a6.247 6.247 0 1 1-12.493 0 6.247 6.247 0 0 1 12.493 0zm0 0" fill="#eff2f4"/>
    <path d="M12 8.238a6.44 6.44 0 0 0-1.488.176 6.255 6.255 0 0 1 4.761 6.07 6.255 6.255 0 0 1-4.761 6.07c.476.118.976.176 1.488.176a6.247 6.247 0 0 0 0-12.492zm0 0" fill="#f1f1f4"/>
    <path d="M12.703 14.469a.705.705 0 0 1-.703.703.705.705 0 0 1-.703-.703c0-.387.316-.703.703-.703.387 0 .703.316.703.703zm0 0" fill="#ffc250"/>
    <path d="M12 18.941c-.7 0-1.39-.164-2.012-.476a.18.18 0 0 1-.074-.254l1.152-2c.047-.078.145-.113.23-.078.224.094.462.14.704.14.242 0 .48-.046.703-.14a.187.187 0 0 1 .23.078l1.153 2a.18.18 0 0 1-.074.254A4.484 4.484 0 0 1 12 18.94zm0 0M7.691 14.363a.186.186 0 0 1-.183-.195 4.56 4.56 0 0 1 .562-1.922l.063-.11a4.55 4.55 0 0 1 1.387-1.448.18.18 0 0 1 .257.062l1.157 1.996a.186.186 0 0 1-.047.238c-.387.297-.64.739-.707 1.22a.182.182 0 0 1-.18.16zm0 0M13.82 14.203a1.862 1.862 0 0 0-.707-1.219.186.186 0 0 1-.047-.238l1.157-1.996a.18.18 0 0 1 .257-.063c.563.372 1.04.872 1.387 1.454l.063.109c.328.586.52 1.246.562 1.918a.186.186 0 0 1-.183.195H14a.182.182 0 0 1-.18-.16zm0 0" fill="#ffd064"/>
    <path d="M14.012 18.465a.18.18 0 0 0 .074-.254l-.02-.035a5.82 5.82 0 0 1-.336.418c.094-.04.188-.082.282-.13zm0 0" fill="#e5a32e"/>
    <path d="M16.492 14.168a4.527 4.527 0 0 0-.562-1.918l-.063-.11a4.524 4.524 0 0 0-1.387-1.453.18.18 0 0 0-.257.063l-.086.145a6.219 6.219 0 0 1 1.133 3.468h1.039c.105 0 .187-.09.183-.195zm0 0" fill="#ffc250"/>
    <path d="M22.34 2.266h-7.137V1.64c0-.907-.738-1.641-1.64-1.641h-3.126c-.902 0-1.64.734-1.64 1.64v.626H1.66c-.625 0-1.129.504-1.129 1.125v1.632c0 .622.504 1.125 1.13 1.125h1.148l1.418 15.813A2.234 2.234 0 0 0 6.46 24h11.078a2.234 2.234 0 0 0 2.234-2.04l.086-.96a.353.353 0 0 0-.703-.063l-.086.961a1.529 1.529 0 0 1-1.53 1.399H6.46c-.8 0-1.46-.602-1.53-1.399L3.516 6.148H4.93a.35.35 0 0 0 .351-.351.353.353 0 0 0-.351-.352H1.66a.423.423 0 0 1-.426-.422V3.391c0-.235.192-.422.426-.422h20.68c.234 0 .426.187.426.422v1.632a.423.423 0 0 1-.426.422H6.574a.353.353 0 0 0-.351.352.35.35 0 0 0 .351.351h13.91l-1.18 13.133a.356.356 0 0 0 .321.383h.031c.18 0 .332-.137.352-.32L21.19 6.148h1.149c.625 0 1.129-.503 1.129-1.125V3.391c0-.621-.504-1.125-1.13-1.125zm-7.84 0h-5V1.64a.94.94 0 0 1 .938-.938h3.124a.94.94 0 0 1 .938.938zm0 0"/>
    <path d="M5.402 14.484A6.602 6.602 0 0 0 12 21.082a6.602 6.602 0 0 0 6.598-6.598A6.602 6.602 0 0 0 12 7.887a6.602 6.602 0 0 0-6.598 6.597zm12.493 0A5.902 5.902 0 0 1 12 20.38a5.902 5.902 0 0 1-5.895-5.895A5.902 5.902 0 0 1 12 8.59a5.902 5.902 0 0 1 5.895 5.894zm0 0"/>
    <path d="M10.945 14.469a1.055 1.055 0 1 0 2.11-.001 1.055 1.055 0 0 0-2.11 0zM12 14.117c.191 0 .352.16.352.352 0 .191-.16.351-.352.351a.355.355 0 0 1-.352-.351c0-.192.16-.352.352-.352zm0 0M13.238 16.035a.54.54 0 0 0-.668-.226 1.48 1.48 0 0 1-1.14 0 .54.54 0 0 0-.668.226l-1.153 2a.535.535 0 0 0 .223.746c1.363.68 2.98.676 4.336 0a.535.535 0 0 0 .223-.746zm-2.93 2.192l.993-1.715c.453.152.945.152 1.398 0l.992 1.715a4.15 4.15 0 0 1-3.382 0zm0 0M10.531 14.25c.051-.387.258-.746.57-.988.211-.16.27-.457.137-.692l-1.156-1.996a.53.53 0 0 0-.758-.18 4.86 4.86 0 0 0-2.168 3.754.54.54 0 0 0 .535.567H10c.266 0 .496-.2.531-.465zm-2.656-.238a4.137 4.137 0 0 1 1.691-2.93l.993 1.719c-.36.316-.606.742-.7 1.21zm0 0M12.898 13.262c.313.242.52.601.57.988a.538.538 0 0 0 .532.465h2.309c.304 0 .55-.258.535-.567a4.856 4.856 0 0 0-2.168-3.753.53.53 0 0 0-.758.18l-1.156 1.995a.537.537 0 0 0 .136.692zm1.536-2.18a4.137 4.137 0 0 1 1.691 2.93h-1.984a2.186 2.186 0 0 0-.7-1.211zm0 0"/>
  </symbol>

</svg>