<?xml version="1.0" encoding="UTF-8" standalone="no"?>
<svg
   xmlns:dc="http://purl.org/dc/elements/1.1/"
   xmlns:cc="http://creativecommons.org/ns#"
   xmlns:rdf="http://www.w3.org/1999/02/22-rdf-syntax-ns#"
   xmlns:svg="http://www.w3.org/2000/svg"
   xmlns="http://www.w3.org/2000/svg"
   xmlns:sodipodi="http://sodipodi.sourceforge.net/DTD/sodipodi-0.dtd"
   xmlns:inkscape="http://www.inkscape.org/namespaces/inkscape"
   version="1.1"
   id="svg63"
   sodipodi:docname="icon_sprite.svg"
   inkscape:version="1.0.1 (c497b03c, 2020-09-10)"
   inkscape:label="metal">
  <metadata
     id="metadata69">
    <rdf:RDF>
      <cc:Work
         rdf:about="">
        <dc:format>image/svg+xml</dc:format>
        <dc:type
           rdf:resource="http://purl.org/dc/dcmitype/StillImage" />
      </cc:Work>
    </rdf:RDF>
  </metadata>
  <defs
     id="defs67" />
  <sodipodi:namedview
     pagecolor="#ffffff"
     bordercolor="#666666"
     borderopacity="1"
     objecttolerance="10"
     gridtolerance="10"
     guidetolerance="10"
     inkscape:pageopacity="0"
     inkscape:pageshadow="2"
     inkscape:window-width="1092"
     inkscape:window-height="808"
     id="namedview65"
     showgrid="false"
     inkscape:zoom="0.082201163"
     inkscape:cx="-1960.2585"
     inkscape:cy="277.23993"
     inkscape:window-x="260"
     inkscape:window-y="154"
     inkscape:window-maximized="0"
     inkscape:current-layer="svg63" />
  <!-- recycle -->
  <symbol
     id="recycle"
     viewBox="0 0 24 24">
    <g
       id="g16">
      <path
         d="m 7.356,1.482 c 0,0 1.762,-0.865 3.229,1.677 1.026,1.777 2.991,5.181 2.991,5.181 l 5.196,-3 c 0,0 -1,-1.732 -1.75,-3.031 C 16.272,1.01 15.116,1.008 15.116,1.008 H 9.882 C 7.934,0.928 7.356,1.482 7.356,1.482 Z"
         id="path10" />
      <path
         d="M 9.72,3.659 C 8.84,2.134 7.959,2.042 7.589,2.03 7.218,2.017 6.7,2.207 6.309,2.885 5.918,3.563 4.123,6.67 4.123,6.67 l 5.196,3 1.936,-3.353 z"
         id="path12" />
      <path
         d="m 12.318,8.919 5.357,0.519 2.232,-4.894 C 20.006,4.367 19.808,4.172 19.632,4.273 l -7.411,4.272 c -0.175,0.102 -0.106,0.371 0.097,0.374 z"
         id="path14" />
    </g>
    <g
       id="g24">
      <path
         d="m 23.55,14.042 c 0,0 -0.132,1.958 -3.067,1.958 -2.052,0 -5.983,0 -5.983,0 v 6 c 0,0 2,0 3.5,0 1.5,0 2.08,-1 2.08,-1 l 2.617,-4.532 c 1.043,-1.649 0.853,-2.426 0.853,-2.426 z"
         id="path18" />
      <path
         d="m 20.483,15 c 1.761,0 2.281,-0.716 2.477,-1.031 0.196,-0.315 0.29,-0.858 -0.101,-1.536 C 22.468,11.756 20.5,8.349 20.5,8.349 l -5.196,3 2.108,3.651 z"
         id="path20" />
      <path
         d="M 14.628,14.62 11.5,19 l 3.122,4.38 c 0.104,0.174 0.371,0.1 0.372,-0.103 L 15,14.723 C 15,14.52 14.732,14.446 14.628,14.62 Z"
         id="path22" />
    </g>
    <g
       id="g32">
      <path
         d="m 4.921,21.785 c 0,0 -1.63,-1.094 -0.163,-3.635 1.026,-1.777 2.819,-5.48 2.819,-5.48 l -5.196,-3 c 0,0 -1,1.732 -1.75,3.031 -0.75,1.299 -0.001,2.6 -0.001,2.6 l 2.617,4.532 c 0.905,1.729 1.674,1.952 1.674,1.952 z"
         id="path26" />
      <path
         d="m 5.625,18.65 c -0.88,1.525 -0.52,2.333 -0.345,2.66 0.175,0.327 0.598,0.681 1.38,0.681 0.782,0 4.371,0 4.371,0 v -6 H 7.16 Z"
         id="path28" />
      <path
         d="M 8.708,13.471 6.479,8.572 1.125,9.086 C 0.922,9.089 0.852,9.358 1.028,9.459 l 7.406,4.282 c 0.175,0.102 0.373,-0.093 0.274,-0.27 z"
         id="path30" />
    </g>
  </symbol>
  <!-- compost -->
  <symbol
     id="compost"
     viewBox="0 0 24 24">
    <path
       d="M 19,8 H 5 V 8 C 5,6.895 5.895,6 7,6 h 10 c 1.105,0 2,0.895 2,2 z"
       id="path35" />
    <path
       d="m 14,5.008 h -4 c -1.105,0 -2,0.895 -2,2 h 8 c 0,-1.105 -0.895,-2 -2,-2 z"
       id="path37" />
    <path
       d="m 5.74,9 0.748,12.25 c 0,0.966 0.28,1.75 1.246,1.75 h 8.532 c 0.966,0 1.246,-0.784 1.246,-1.75 L 18.26,9 Z"
       id="path39" />
  </symbol>
  <!-- garbage -->
  <symbol
     id="garbage"
     viewBox="0 0 24 24">
    <path
       d="M 18,12 H 6 C 5.448,12 5,11.552 5,11 V 4 h 14 v 7 c 0,0.552 -0.448,1 -1,1 z"
       id="path42" />
    <path
       d="M 20,3 H 4 V 3 C 4,1.895 4.716,1 5.6,1 H 18.4 C 19.284,1 20,1.895 20,3 Z"
       id="path44" />
    <path
       d="m 4.75,23 v 0 C 4.336,23 4,22.664 4,22.25 v -4.5 C 4,17.336 4.336,17 4.75,17 v 0 c 0.414,0 0.75,0.336 0.75,0.75 v 4.5 C 5.5,22.664 5.164,23 4.75,23 Z"
       id="path46" />
    <path
       d="m 19.25,23 v 0 C 18.836,23 18.5,22.664 18.5,22.25 v -4.5 C 18.5,17.336 18.836,17 19.25,17 v 0 c 0.414,0 0.75,0.336 0.75,0.75 v 4.5 C 20,22.664 19.664,23 19.25,23 Z"
       id="path48" />
    <path
       d="M 15.994,2 C 15.964,0.922 15.085,0.057 14,0.057 H 10 C 8.915,0.057 8.036,0.922 8.006,2 Z"
       id="path50" />
    <path
       d="M 16,6 H 8 C 6.895,6 6,6.895 6,8 v 13 c 0,1.105 0.895,2 2,2 H 8.55 L 9.503,13.947 C 9.529,13.693 9.744,13.5 10,13.5 h 4 c 0.256,0 0.471,0.193 0.497,0.447 L 15.45,23 H 16 c 1.105,0 2,-0.895 2,-2 V 8 C 18,6.895 17.105,6 16,6 Z"
       id="path52" />
    <polygon
       points="13.55,14.5 10.45,14.5 9.661,22 14.339,22 "
       id="polygon54" />
  </symbol>
  <!-- yard_waste -->
  <symbol
     id="waste"
     viewBox="0 0 24 24">
    <path
       d="M 18,3 16,4 14,3 12,4 10,3 8,4 6,3 5,3.5 6,17 5,21 c 0,1.105 0.895,2 2,2 h 10 c 1.105,0 2,-0.895 2,-2 L 18,17 19,3.5 Z M 14.798,16.75 C 13.172,18.376 10.817,18.701 9.273,17.605 8.658,18.222 7.951,19.5 7.951,19.5 L 7,19.246 C 8.938,16.485 10.378,14.918 13.203,12.897 13.203,12.897 9.5,14 8,16 7.5,14.5 7.822,12.83 9.35,11.302 10.34,10.312 12.03,10.055 13.854,9.898 15.789,9.732 17,9.1 17,9.1 c 0,0 -0.418,5.866 -2.202,7.65 z"
       id="path57" />
  </symbol>
  <!-- christmas_tree -->
  <symbol
     id="cargotram"
     viewBox="0 0 24 24">
    <path
       d="M 20.377,21.378 C 18.194,19.461 17.085,17.594 15.5,15 h 2.711 c 0.12,0 0.222,-0.062 0.267,-0.161 0.045,-0.1 0.02,-0.208 -0.065,-0.283 C 16.683,13.037 15.69,10.128 14.5,8 h 1.801 C 16.383,8 16.454,7.958 16.485,7.889 16.516,7.821 16.499,7.746 16.44,7.694 14.609,6.086 13.028,2.864 12.191,0.13 12.167,0.053 12.09,0 12,0 11.91,0 11.833,0.053 11.809,0.131 10.972,2.864 9.392,6.086 7.56,7.695 7.501,7.746 7.484,7.821 7.515,7.889 7.547,7.958 7.617,8 7.699,8 H 9.5 C 8.309,10.128 7.317,13.037 5.588,14.556 5.502,14.631 5.477,14.739 5.522,14.839 5.567,14.938 5.669,15 5.789,15 H 8.5 C 6.915,17.594 5.806,19.461 3.623,21.378 3.503,21.483 3.468,21.635 3.531,21.774 3.594,21.914 3.737,22 3.905,22 H 11 v 1 h 2 v -1 h 7.095 c 0.168,0 0.31,-0.086 0.374,-0.226 0.063,-0.139 0.028,-0.291 -0.092,-0.396 z"
       id="path60" />
  </symbol>
  <g
     id="metal"
     transform="translate(-1571.4988,410.52883)"
     inkscape:label="metal">
    <path
       d="M 488,232 H 466.98022 C 475.45215,224.93622 480,216.75012 480,208 c 0,-22.73041 -30.85156,-40.81628 -75.282,-46.29047 l 9.68237,-12.90973 A 8.00222,8.00222 0 0 0 416,144 v -16 a 40,40 0 0 0 -80,0 v 16 a 8.00366,8.00366 0 0 0 1.59961,4.80029 l 9.68213,12.90924 C 302.85156,167.18372 272,185.26965 272,208 c 0,8.75012 4.54785,16.93622 13.01978,24 H 264 a 8.00008,8.00008 0 0 0 -8,8 v 32 a 8.00008,8.00008 0 0 0 8,8 h 8 v 168 h -8 a 8.00008,8.00008 0 0 0 -8,8 v 32 a 8.00008,8.00008 0 0 0 8,8 h 224 a 8.00008,8.00008 0 0 0 8,-8 v -32 a 8.00008,8.00008 0 0 0 -8,-8 h -8 V 280 h 8 a 8.00008,8.00008 0 0 0 8,-8 v -32 a 8.00008,8.00008 0 0 0 -8,-8 z M 352,141.3335 V 128 a 24,24 0 0 1 48,0 v 13.3335 l -14.14771,18.86316 Q 380.99927,160.00476 376,160 q -4.99878,0 -9.85156,0.19659 z M 288,208 c 0,-15.10547 37.63379,-32 88,-32 50.36621,0 88,16.89453 88,32 0,7.37109 -9.53027,15.47791 -24.873,21.56885 A 18.62845,18.62845 0 0 0 440,224 c 0,-5.68262 -2.76074,-16.39941 -21.251,-24.32373 C 407.19922,194.72607 392.0166,192 376,192 c -2.83789,0 -5.69434,0.0869 -8.48926,0.2583 l 0.97852,15.96973 C 370.96,208.07666 373.4873,208 376,208 c 29.77637,0 48,10.35938 48,16 0,1.89075 -2.54639,5.012 -8.16846,8 h -96.1853 C 300.38257,225.76184 288,216.40277 288,208 Z M 480,480 H 272 V 464 H 480 Z M 464,304 h -56 v 16 h 56 v 24 H 352 v 16 h 112 v 16 h -56 v 16 h 56 v 16 H 352 v 16 h 112 v 24 H 288 v -24 h 48 V 408 H 288 V 392 H 392 V 376 H 288 v -16 h 48 v -16 h -48 v -24 h 32 v -16 h -32 v -24 h 176 z m 16,-40 H 272 v -16 h 208 z"
       id="path735" />
    <path
       d="m 332.794,199.874 6.4121,14.65918 a 71.961,71.961 0 0 1 14.38965,-4.38427 l -3.1914,-15.67872 A 87.88455,87.88455 0 0 0 332.794,199.874 Z"
       id="path737" />
    <path
       d="m 392,128 a 8.00008,8.00008 0 0 0 -8,-8 h -16 a 8,8 0 0 0 0,16 h 16 a 8.00008,8.00008 0 0 0 8,-8 z"
       id="path739" />
    <rect
       x="344"
       y="304"
       width="16"
       height="16"
       id="rect741" />
    <rect
       x="376"
       y="304"
       width="16"
       height="16"
       id="rect743" />
    <path
       d="M 50.34277,493.65674 A 8.00076,8.00076 0 0 0 56,496 H 240 V 480 H 59.31348 L 43.31372,464 H 240 V 448 H 200 V 388.92627 A 100.28386,100.28386 0 0 0 139.15137,296.64697 84.30268,84.30268 0 0 1 88,219.07373 V 184 h 72.84668 a 100.26045,100.26045 0 0 0 60.002,79.353 l 6.30274,-14.70606 A 84.28827,84.28827 0 0 1 176.99609,184 H 256 V 168 H 39.54565 L 68.11694,128 H 251.8833 l 26.17822,36.6499 13.01953,-9.2998 -22.21728,-31.10443 A 23.98986,23.98986 0 0 0 256,80 H 200 V 56 a 40,40 0 0 0 -80,0 V 80 H 64 a 23.98986,23.98986 0 0 0 -12.86377,44.24567 l -33.646,47.10443 A 8.003,8.003 0 0 0 16,176 v 280 a 8.00035,8.00035 0 0 0 2.34277,5.65674 z M 32,363.29309 A 100.0677,100.0677 0 0 0 52.84863,375.353 84.28505,84.28505 0 0 1 103.84326,448 H 32 Z M 132.84863,311.353 A 84.30268,84.30268 0 0 1 184,388.92627 V 448 H 119.86523 A 100.2649,100.2649 0 0 0 59.15137,360.647 83.73194,83.73194 0 0 1 32,341.98981 V 184 h 40 v 35.07373 A 100.28386,100.28386 0 0 0 132.84863,311.353 Z M 136,56 a 24,24 0 0 1 48,0 V 80 H 136 Z M 64,96 h 192 a 8,8 0 0 1 0,16 H 64 a 8,8 0 0 1 0,-16 z"
       id="path745" />
    <path
       d="m 168,48 h -16 a 8,8 0 0 0 0,16 h 16 a 8,8 0 0 0 0,-16 z"
       id="path747" />
  </g>
</svg>
