<svg xmlns="http://www.w3.org/2000/svg">

  <!-- general -->
  <symbol id="general" viewBox="0 0 24 24">
    <g>
      <path d="M7.356,1.482c0,0,1.762-0.865,3.229,1.677c1.026,1.777,2.991,5.181,2.991,5.181l5.196-3c0,0-1-1.732-1.75-3.031
        s-1.906-1.301-1.906-1.301l-5.234,0C7.934,0.928,7.356,1.482,7.356,1.482z"/>
      <path d="M9.72,3.659c-0.88-1.525-1.761-1.617-2.131-1.629C7.218,2.017,6.7,2.207,6.309,2.885S4.123,6.67,4.123,6.67l5.196,3
        l1.936-3.353L9.72,3.659z"/>
      <path d="M12.318,8.919l5.357,0.519l2.232-4.894c0.099-0.177-0.099-0.372-0.275-0.271l-7.411,4.272
        C12.046,8.647,12.115,8.916,12.318,8.919z"/>
    </g>
    <g>
      <path d="M23.55,14.042c0,0-0.132,1.958-3.067,1.958c-2.052,0-5.983,0-5.983,0v6c0,0,2,0,3.5,0s2.08-1,2.08-1l2.617-4.532
        C23.74,14.819,23.55,14.042,23.55,14.042z"/>
      <path d="M20.483,15c1.761,0,2.281-0.716,2.477-1.031c0.196-0.315,0.29-0.858-0.101-1.536C22.468,11.756,20.5,8.349,20.5,8.349
        l-5.196,3L17.412,15H20.483z"/>
      <path d="M14.628,14.62L11.5,19l3.122,4.38c0.104,0.174,0.371,0.1,0.372-0.103L15,14.723C15,14.52,14.732,14.446,14.628,14.62z"/>
    </g>
    <g>
      <path d="M4.921,21.785c0,0-1.63-1.094-0.163-3.635c1.026-1.777,2.819-5.48,2.819-5.48l-5.196-3c0,0-1,1.732-1.75,3.031
        s-0.001,2.6-0.001,2.6l2.617,4.532C4.152,21.562,4.921,21.785,4.921,21.785z"/>
      <path d="M5.625,18.65c-0.88,1.525-0.52,2.333-0.345,2.66c0.175,0.327,0.598,0.681,1.38,0.681s4.371,0,4.371,0l0-6l-3.871,0
        L5.625,18.65z"/>
      <path d="M8.708,13.471L6.479,8.572L1.125,9.086C0.922,9.089,0.852,9.358,1.028,9.459l7.406,4.282
        C8.609,13.843,8.807,13.648,8.708,13.471z"/>
    </g>
  </symbol>

  <!-- organic -->
  <!-- <symbol id="organic" viewBox="0 0 24 24">
    <path d="M19,8H5v0c0-1.105,0.895-2,2-2h10C18.105,6,19,6.895,19,8L19,8z"/>
    <path d="M14,5.008h-4c-1.105,0-2,0.895-2,2h8C16,5.903,15.105,5.008,14,5.008z"/>
    <path d="M5.74,9l0.748,12.25c0,0.966,0.28,1.75,1.246,1.75h8.532c0.966,0,1.246-0.784,1.246-1.75L18.26,9H5.74z"/>
  </symbol> -->

  <!-- special -->
  <symbol id="special" viewBox="0 0 24 24">
    <path d="M18,12H6c-0.552,0-1-0.448-1-1V4h14v7C19,11.552,18.552,12,18,12z"/>
    <path d="M20,3H4v0c0-1.105,0.716-2,1.6-2h12.8C19.284,1,20,1.895,20,3L20,3z"/>
    <path d="M4.75,23L4.75,23C4.336,23,4,22.664,4,22.25v-4.5C4,17.336,4.336,17,4.75,17h0c0.414,0,0.75,0.336,0.75,0.75v4.5
      C5.5,22.664,5.164,23,4.75,23z"/>
    <path d="M19.25,23L19.25,23c-0.414,0-0.75-0.336-0.75-0.75v-4.5c0-0.414,0.336-0.75,0.75-0.75l0,0c0.414,0,0.75,0.336,0.75,0.75
      v4.5C20,22.664,19.664,23,19.25,23z"/>
    <path d="M15.994,2C15.964,0.922,15.085,0.057,14,0.057h-4C8.915,0.057,8.036,0.922,8.006,2H15.994z"/>
    <path d="M16,6H8C6.895,6,6,6.895,6,8v13c0,1.105,0.895,2,2,2h0.55l0.953-9.053C9.529,13.693,9.744,13.5,10,13.5h4
      c0.256,0,0.471,0.193,0.497,0.447L15.45,23H16c1.105,0,2-0.895,2-2V8C18,6.895,17.105,6,16,6z"/>
    <polygon points="14.339,22 13.55,14.5 10.45,14.5 9.661,22   "/>
  </symbol>

  <!-- waste -->
  <symbol id="waste" viewBox="0 0 24 24">
    <path d="M18,3l-2,1l-2-1l-2,1l-2-1L8,4L6,3L5,3.5L6,17l-1,4c0,1.105,0.895,2,2,2h10c1.105,0,2-0.895,2-2l-1-4l1-13.5L18,3z
       M14.798,16.75c-1.626,1.626-3.981,1.951-5.525,0.855C8.658,18.222,7.951,19.5,7.951,19.5L7,19.246
      c1.938-2.761,3.378-4.328,6.203-6.349C13.203,12.897,9.5,14,8,16c-0.5-1.5-0.178-3.17,1.35-4.698c0.99-0.99,2.68-1.247,4.504-1.404
      C15.789,9.732,17,9.1,17,9.1S16.582,14.966,14.798,16.75z"/>
  </symbol>

  <symbol id="metal" viewBox="0 0 24 24">
  <path d="M488 232h-21.02c8.472-7.064 13.02-15.25 13.02-24 0-22.73-30.852-40.816-75.282-46.29l9.682-12.91a8.002 8.002 0 0 0 1.6-4.8v-16a40 40 0 0 0-80 0v16a8.004 8.004 0 0 0 1.6 4.8l9.682 12.91C302.852 167.184 272 185.27 272 208c0 8.75 4.548 16.936 13.02 24H264a8 8 0 0 0-8 8v32a8 8 0 0 0 8 8h8v168h-8a8 8 0 0 0-8 8v32a8 8 0 0 0 8 8h224a8 8 0 0 0 8-8v-32a8 8 0 0 0-8-8h-8V280h8a8 8 0 0 0 8-8v-32a8 8 0 0 0-8-8zm-136-90.667V128a24 24 0 0 1 48 0v13.334l-14.148 18.863Q381 160.005 376 160q-4.999 0-9.852.197zM288 208c0-15.105 37.634-32 88-32s88 16.895 88 32c0 7.371-9.53 15.478-24.873 21.569A18.628 18.628 0 0 0 440 224c0-5.683-2.76-16.4-21.251-24.324C407.199 194.726 392.017 192 376 192c-2.838 0-5.694.087-8.49.258l.98 15.97c2.47-.151 4.997-.228 7.51-.228 29.776 0 48 10.36 48 16 0 1.89-2.546 5.012-8.168 8h-96.186C300.383 225.762 288 216.403 288 208zm192 272H272v-16h208zm-16-176h-56v16h56v24H352v16h112v16h-56v16h56v16H352v16h112v24H288v-24h48v-16h-48v-16h104v-16H288v-16h48v-16h-48v-24h32v-16h-32v-24h176zm16-40H272v-16h208z"/>
  <path d="M332.794 199.874l6.412 14.66a71.961 71.961 0 0 1 14.39-4.385l-3.192-15.679a87.885 87.885 0 0 0-17.61 5.404zM392 128a8 8 0 0 0-8-8h-16a8 8 0 0 0 0 16h16a8 8 0 0 0 8-8zM344 304h16v16h-16zM376 304h16v16h-16zM50.343 493.657A8 8 0 0 0 56 496h184v-16H59.313l-16-16H240v-16h-40v-59.074a100.284 100.284 0 0 0-60.849-92.279A84.303 84.303 0 0 1 88 219.074V184h72.847a100.26 100.26 0 0 0 60.002 79.353l6.302-14.706A84.288 84.288 0 0 1 176.996 184H256v-16H39.546l28.57-40h183.767l26.179 36.65 13.019-9.3-22.217-31.104A23.99 23.99 0 0 0 256 80h-56V56a40 40 0 0 0-80 0v24H64a23.99 23.99 0 0 0-12.864 44.246L17.49 171.35A8.003 8.003 0 0 0 16 176v280a8 8 0 0 0 2.343 5.657zM32 363.293a100.068 100.068 0 0 0 20.849 12.06A84.285 84.285 0 0 1 103.843 448H32zm100.849-51.94A84.303 84.303 0 0 1 184 388.926V448h-64.135a100.265 100.265 0 0 0-60.714-87.353A83.732 83.732 0 0 1 32 341.99V184h40v35.074a100.284 100.284 0 0 0 60.849 92.279zM136 56a24 24 0 0 1 48 0v24h-48zM64 96h192a8 8 0 0 1 0 16H64a8 8 0 0 1 0-16z"/>
  <path d="M168 48h-16a8 8 0 0 0 0 16h16a8 8 0 0 0 0-16z"/>
  </symbol>

</svg>