<svg xmlns="http://www.w3.org/2000/svg">

  <!-- general -->
  <symbol id="general" viewBox="0 0 24 24">
    <g>
      <path d="M7.356,1.482c0,0,1.762-0.865,3.229,1.677c1.026,1.777,2.991,5.181,2.991,5.181l5.196-3c0,0-1-1.732-1.75-3.031
        s-1.906-1.301-1.906-1.301l-5.234,0C7.934,0.928,7.356,1.482,7.356,1.482z"/>
      <path d="M9.72,3.659c-0.88-1.525-1.761-1.617-2.131-1.629C7.218,2.017,6.7,2.207,6.309,2.885S4.123,6.67,4.123,6.67l5.196,3
        l1.936-3.353L9.72,3.659z"/>
      <path d="M12.318,8.919l5.357,0.519l2.232-4.894c0.099-0.177-0.099-0.372-0.275-0.271l-7.411,4.272
        C12.046,8.647,12.115,8.916,12.318,8.919z"/>
    </g>
    <g>
      <path d="M23.55,14.042c0,0-0.132,1.958-3.067,1.958c-2.052,0-5.983,0-5.983,0v6c0,0,2,0,3.5,0s2.08-1,2.08-1l2.617-4.532
        C23.74,14.819,23.55,14.042,23.55,14.042z"/>
      <path d="M20.483,15c1.761,0,2.281-0.716,2.477-1.031c0.196-0.315,0.29-0.858-0.101-1.536C22.468,11.756,20.5,8.349,20.5,8.349
        l-5.196,3L17.412,15H20.483z"/>
      <path d="M14.628,14.62L11.5,19l3.122,4.38c0.104,0.174,0.371,0.1,0.372-0.103L15,14.723C15,14.52,14.732,14.446,14.628,14.62z"/>
    </g>
    <g>
      <path d="M4.921,21.785c0,0-1.63-1.094-0.163-3.635c1.026-1.777,2.819-5.48,2.819-5.48l-5.196-3c0,0-1,1.732-1.75,3.031
        s-0.001,2.6-0.001,2.6l2.617,4.532C4.152,21.562,4.921,21.785,4.921,21.785z"/>
      <path d="M5.625,18.65c-0.88,1.525-0.52,2.333-0.345,2.66c0.175,0.327,0.598,0.681,1.38,0.681s4.371,0,4.371,0l0-6l-3.871,0
        L5.625,18.65z"/>
      <path d="M8.708,13.471L6.479,8.572L1.125,9.086C0.922,9.089,0.852,9.358,1.028,9.459l7.406,4.282
        C8.609,13.843,8.807,13.648,8.708,13.471z"/>
    </g>
  </symbol>

  <!-- organic -->
  <!-- <symbol id="organic" viewBox="0 0 24 24">
    <path d="M19,8H5v0c0-1.105,0.895-2,2-2h10C18.105,6,19,6.895,19,8L19,8z"/>
    <path d="M14,5.008h-4c-1.105,0-2,0.895-2,2h8C16,5.903,15.105,5.008,14,5.008z"/>
    <path d="M5.74,9l0.748,12.25c0,0.966,0.28,1.75,1.246,1.75h8.532c0.966,0,1.246-0.784,1.246-1.75L18.26,9H5.74z"/>
  </symbol> -->

  <!-- special -->
  <symbol id="special" viewBox="0 0 24 24">
    <path d="M18,12H6c-0.552,0-1-0.448-1-1V4h14v7C19,11.552,18.552,12,18,12z"/>
    <path d="M20,3H4v0c0-1.105,0.716-2,1.6-2h12.8C19.284,1,20,1.895,20,3L20,3z"/>
    <path d="M4.75,23L4.75,23C4.336,23,4,22.664,4,22.25v-4.5C4,17.336,4.336,17,4.75,17h0c0.414,0,0.75,0.336,0.75,0.75v4.5
      C5.5,22.664,5.164,23,4.75,23z"/>
    <path d="M19.25,23L19.25,23c-0.414,0-0.75-0.336-0.75-0.75v-4.5c0-0.414,0.336-0.75,0.75-0.75l0,0c0.414,0,0.75,0.336,0.75,0.75
      v4.5C20,22.664,19.664,23,19.25,23z"/>
    <path d="M15.994,2C15.964,0.922,15.085,0.057,14,0.057h-4C8.915,0.057,8.036,0.922,8.006,2H15.994z"/>
    <path d="M16,6H8C6.895,6,6,6.895,6,8v13c0,1.105,0.895,2,2,2h0.55l0.953-9.053C9.529,13.693,9.744,13.5,10,13.5h4
      c0.256,0,0.471,0.193,0.497,0.447L15.45,23H16c1.105,0,2-0.895,2-2V8C18,6.895,17.105,6,16,6z"/>
    <polygon points="14.339,22 13.55,14.5 10.45,14.5 9.661,22   "/>
  </symbol>

  <!-- waste -->
  <symbol id="waste" viewBox="0 0 24 24">
    <path d="M18,3l-2,1l-2-1l-2,1l-2-1L8,4L6,3L5,3.5L6,17l-1,4c0,1.105,0.895,2,2,2h10c1.105,0,2-0.895,2-2l-1-4l1-13.5L18,3z
       M14.798,16.75c-1.626,1.626-3.981,1.951-5.525,0.855C8.658,18.222,7.951,19.5,7.951,19.5L7,19.246
      c1.938-2.761,3.378-4.328,6.203-6.349C13.203,12.897,9.5,14,8,16c-0.5-1.5-0.178-3.17,1.35-4.698c0.99-0.99,2.68-1.247,4.504-1.404
      C15.789,9.732,17,9.1,17,9.1S16.582,14.966,14.798,16.75z"/>
  </symbol>

  <symbol id="organic" viewBox="0 0 24 24">
    <g>
      <path d="m286 86c5.522 0 10-4.477 10-10s-4.478-10-10-10c-22.056 0-40 17.944-40 40v26.193c-10.954-4.073-22.812-6.193-35-6.193-46.869 0-85 31.402-85 70 0 5.523 4.477 10 10 10 30.841 0 50 24.907 50 65 0 39.808-19.073 64.713-49.777 65h-.223c-5.523 0-10 4.477-10 10 0 38.598 38.131 70 85 70 16.001 0 31.437-3.644 45-10.581 13.563 6.937 28.999 10.581 45 10.581 46.869 0 85-31.402 85-70 0-5.523-4.478-10-10-10h-.223c-30.704-.287-49.777-25.192-49.777-65 0-40.093 19.159-65 50-65 5.522 0 10-4.477 10-10 0-38.598-38.131-70-85-70-12.188 0-24.046 2.12-35 6.193v-26.193c0-11.028 8.972-20 20-20zm15 310c-14.451 0-28.243-3.663-39.885-10.593-3.152-1.876-7.078-1.876-10.23 0-11.642 6.93-25.434 10.593-39.885 10.593-31.39 0-57.653-17.205-63.692-40h78.692c11.938 0 22.665-5.264 30-13.585 7.335 8.321 18.062 13.585 30 13.575h78.692c-6.039 22.804-32.302 40.01-63.692 40.01zm5-125c0 23.606 5.878 47.952 22.195 65h-42.195c-11.028 0-20-8.972-20-20 0-5.523-4.478-10-10-10s-10 4.477-10 10c0 11.028-8.972 20-20 20h-42.195c16.321-17.051 22.195-41.402 22.195-65 0-23.548-5.836-47.903-22.145-65h42.145c11.028 0 20 8.972 20 20 0 5.523 4.478 10 10 10s10-4.477 10-10c0-11.028 8.972-20 20-20.01h42.145c-16.304 17.102-22.145 41.453-22.145 65.01zm58.678-85h-78.678c-11.938 0-22.665 5.264-30 13.585-7.335-8.321-18.062-13.585-30-13.585h-78.679c6.042-22.792 32.291-40 63.679-40 14.451 0 28.243 3.663 39.885 10.593 3.152 1.876 7.078 1.876 10.23 0 11.642-6.93 25.434-10.593 39.885-10.593 31.388 0 57.637 17.208 63.678 40z"/>
      <path d="m272.439.008c-5.501-.218-10.179 4.053-10.411 9.571s4.053 10.18 9.571 10.412c123.73 5.205 220.542 108.868 220.401 235.998-.081 75.717-39.081 152.292-98.042 194.345l-6.955-14.912c-1.465-3.141-4.451-5.299-7.893-5.704-3.444-.406-6.848 1-9.003 3.714l-41.7 52.54c-2.354 2.967-2.831 7.01-1.23 10.443 1.602 3.433 5.004 5.667 8.791 5.77 0 0 67.241 1.834 67.333 1.834 3.362 0 6.508-1.692 8.359-4.513 1.901-2.897 2.167-6.573.702-9.714l-9.82-21.055c64.163-44.101 109.366-126.9 109.458-212.727.149-134.207-101.289-250.185-239.561-256.002zm84.069 482.731 19.208-24.201 11.682 25.044z"/>
      <circle cx="75" cy="424" r="10"/>
      <path d="m102.4 461.99c40.059 30.621 87.488 47.911 137.16 50.001.143.006.286.009.428.009 5.329 0 9.758-4.205 9.983-9.58.232-5.518-4.053-10.179-9.57-10.412-45.552-1.917-89.072-17.791-125.855-45.908-4.387-3.354-10.664-2.516-14.018 1.872s-2.516 10.664 1.872 14.018z"/>
      <path d="m0 256.003c.016 48.02 13.795 95.42 39.85 137.076 2.929 4.682 9.098 6.105 13.781 3.175 4.683-2.929 6.104-9.099 3.175-13.781-24.064-38.473-36.792-82.209-36.806-126.477-.027-75.783 36.403-145.384 98.015-188.39l6.983 14.971c1.465 3.14 4.452 5.299 7.893 5.704 3.431.406 6.844-.995 9.002-3.714l41.7-52.54c2.354-2.967 2.831-7.01 1.23-10.443s-5.004-5.667-8.79-5.77l-67.06-1.83c-3.481-.091-6.731 1.611-8.633 4.509s-2.168 6.573-.703 9.714l9.813 21.037c-69.768 47.391-109.479 125.412-109.45 206.759zm155.492-220.743-19.208 24.202-11.682-25.045z"/>
    </g>
  </symbol>

</svg>