<svg xmlns="http://www.w3.org/2000/svg">

  <!-- special -->
  <symbol id="special" viewBox="0 0 24 24">
    <path d="M21.129 2.89H2.87l1.707 19.04a1.887 1.887 0 0 0 1.883 1.718h11.078c.98 0 1.797-.746 1.883-1.718zm0 0" fill="#ffd064"/>
    <path d="M18.176 2.89l-1.707 19.04a1.887 1.887 0 0 1-1.883 1.718h2.953c.98 0 1.797-.746 1.883-1.718l1.707-19.04zm0 0" fill="#ffc250"/>
    <path d="M22.34 5.797H1.66a.776.776 0 0 1-.777-.774V3.391c0-.426.347-.774.777-.774h20.68c.43 0 .777.348.777.774v1.632a.776.776 0 0 1-.777.774zm0 0" fill="#8e99a3"/>
    <path d="M22.34 2.617h-2.2v2.406a.776.776 0 0 1-.777.774h2.977c.43 0 .777-.348.777-.774V3.391a.776.776 0 0 0-.777-.774zm0 0" fill="#7f8993"/>
    <path d="M18.246 14.484a6.247 6.247 0 1 1-12.493 0 6.247 6.247 0 0 1 12.493 0zm0 0" fill="#eff2f4"/>
    <path d="M12 8.238a6.44 6.44 0 0 0-1.488.176 6.255 6.255 0 0 1 4.761 6.07 6.255 6.255 0 0 1-4.761 6.07c.476.118.976.176 1.488.176a6.247 6.247 0 0 0 0-12.492zm0 0" fill="#f1f1f4"/>
    <path d="M12.703 14.469a.705.705 0 0 1-.703.703.705.705 0 0 1-.703-.703c0-.387.316-.703.703-.703.387 0 .703.316.703.703zm0 0" fill="#ffc250"/>
    <path d="M12 18.941c-.7 0-1.39-.164-2.012-.476a.18.18 0 0 1-.074-.254l1.152-2c.047-.078.145-.113.23-.078.224.094.462.14.704.14.242 0 .48-.046.703-.14a.187.187 0 0 1 .23.078l1.153 2a.18.18 0 0 1-.074.254A4.484 4.484 0 0 1 12 18.94zm0 0M7.691 14.363a.186.186 0 0 1-.183-.195 4.56 4.56 0 0 1 .562-1.922l.063-.11a4.55 4.55 0 0 1 1.387-1.448.18.18 0 0 1 .257.062l1.157 1.996a.186.186 0 0 1-.047.238c-.387.297-.64.739-.707 1.22a.182.182 0 0 1-.18.16zm0 0M13.82 14.203a1.862 1.862 0 0 0-.707-1.219.186.186 0 0 1-.047-.238l1.157-1.996a.18.18 0 0 1 .257-.063c.563.372 1.04.872 1.387 1.454l.063.109c.328.586.52 1.246.562 1.918a.186.186 0 0 1-.183.195H14a.182.182 0 0 1-.18-.16zm0 0" fill="#ffd064"/>
    <path d="M14.012 18.465a.18.18 0 0 0 .074-.254l-.02-.035a5.82 5.82 0 0 1-.336.418c.094-.04.188-.082.282-.13zm0 0" fill="#e5a32e"/>
    <path d="M16.492 14.168a4.527 4.527 0 0 0-.562-1.918l-.063-.11a4.524 4.524 0 0 0-1.387-1.453.18.18 0 0 0-.257.063l-.086.145a6.219 6.219 0 0 1 1.133 3.468h1.039c.105 0 .187-.09.183-.195zm0 0" fill="#ffc250"/>
    <path d="M22.34 2.266h-7.137V1.64c0-.907-.738-1.641-1.64-1.641h-3.126c-.902 0-1.64.734-1.64 1.64v.626H1.66c-.625 0-1.129.504-1.129 1.125v1.632c0 .622.504 1.125 1.13 1.125h1.148l1.418 15.813A2.234 2.234 0 0 0 6.46 24h11.078a2.234 2.234 0 0 0 2.234-2.04l.086-.96a.353.353 0 0 0-.703-.063l-.086.961a1.529 1.529 0 0 1-1.53 1.399H6.46c-.8 0-1.46-.602-1.53-1.399L3.516 6.148H4.93a.35.35 0 0 0 .351-.351.353.353 0 0 0-.351-.352H1.66a.423.423 0 0 1-.426-.422V3.391c0-.235.192-.422.426-.422h20.68c.234 0 .426.187.426.422v1.632a.423.423 0 0 1-.426.422H6.574a.353.353 0 0 0-.351.352.35.35 0 0 0 .351.351h13.91l-1.18 13.133a.356.356 0 0 0 .321.383h.031c.18 0 .332-.137.352-.32L21.19 6.148h1.149c.625 0 1.129-.503 1.129-1.125V3.391c0-.621-.504-1.125-1.13-1.125zm-7.84 0h-5V1.64a.94.94 0 0 1 .938-.938h3.124a.94.94 0 0 1 .938.938zm0 0"/>
    <path d="M5.402 14.484A6.602 6.602 0 0 0 12 21.082a6.602 6.602 0 0 0 6.598-6.598A6.602 6.602 0 0 0 12 7.887a6.602 6.602 0 0 0-6.598 6.597zm12.493 0A5.902 5.902 0 0 1 12 20.38a5.902 5.902 0 0 1-5.895-5.895A5.902 5.902 0 0 1 12 8.59a5.902 5.902 0 0 1 5.895 5.894zm0 0"/>
    <path d="M10.945 14.469a1.055 1.055 0 1 0 2.11-.001 1.055 1.055 0 0 0-2.11 0zM12 14.117c.191 0 .352.16.352.352 0 .191-.16.351-.352.351a.355.355 0 0 1-.352-.351c0-.192.16-.352.352-.352zm0 0M13.238 16.035a.54.54 0 0 0-.668-.226 1.48 1.48 0 0 1-1.14 0 .54.54 0 0 0-.668.226l-1.153 2a.535.535 0 0 0 .223.746c1.363.68 2.98.676 4.336 0a.535.535 0 0 0 .223-.746zm-2.93 2.192l.993-1.715c.453.152.945.152 1.398 0l.992 1.715a4.15 4.15 0 0 1-3.382 0zm0 0M10.531 14.25c.051-.387.258-.746.57-.988.211-.16.27-.457.137-.692l-1.156-1.996a.53.53 0 0 0-.758-.18 4.86 4.86 0 0 0-2.168 3.754.54.54 0 0 0 .535.567H10c.266 0 .496-.2.531-.465zm-2.656-.238a4.137 4.137 0 0 1 1.691-2.93l.993 1.719c-.36.316-.606.742-.7 1.21zm0 0M12.898 13.262c.313.242.52.601.57.988a.538.538 0 0 0 .532.465h2.309c.304 0 .55-.258.535-.567a4.856 4.856 0 0 0-2.168-3.753.53.53 0 0 0-.758.18l-1.156 1.995a.537.537 0 0 0 .136.692zm1.536-2.18a4.137 4.137 0 0 1 1.691 2.93h-1.984a2.186 2.186 0 0 0-.7-1.211zm0 0"/>
  </symbol>

<!-- waste -->
<symbol id="waste" viewBox="0 0 24 24">
  <path d="M15.91 22.5H4.34a1.88 1.88 0 0 1-1.395-.621 1.877 1.877 0 0 1-.468-1.457l1-9.207a6.683 6.683 0 0 1 7.136-5.945 6.683 6.683 0 0 1 6.16 5.945l1 9.207a1.877 1.877 0 0 1-.468 1.457 1.88 1.88 0 0 1-1.395.621zm0 0" fill="#e3e4e2"/>
  <path d="M8.594 6.375L7.28 1.5h5.625l-1.41 4.875zm0 0" fill="#e3e4e2"/>
  <path d="M19.68 22.5h-6.36a1.874 1.874 0 0 1-1.863-2.063l.508-5.082A4.56 4.56 0 0 1 16.5 11.25a4.56 4.56 0 0 1 4.535 4.105l.508 5.082A1.874 1.874 0 0 1 19.68 22.5zm0 0" fill="#0093b9"/>
  <path d="M15.582 11.969l-.957-3.344h3.75l-.957 3.344zm0 0" fill="#0093b9"/>
  <path d="M10.332 16.094l-.957-3.344h3.75l-.957 3.344zm0 0" fill="#56c3c1"/>
  <path d="M13.555 22.5h-4.61c-.55 0-1.07-.238-1.425-.656a1.878 1.878 0 0 1-.426-1.512l.254-1.625a3.953 3.953 0 0 1 3.422-3.3c.32-.044.64-.044.96 0a3.953 3.953 0 0 1 3.422 3.3l.254 1.625a1.878 1.878 0 0 1-.426 1.512 1.866 1.866 0 0 1-1.425.656zm0 0" fill="#56c3c1"/>
  <path d="M15.523 18.648a4.325 4.325 0 0 0-2.734-3.363l.695-2.433a.365.365 0 0 0-.058-.329.377.377 0 0 0-.301-.148h-3.75a.377.377 0 0 0-.3.148.365.365 0 0 0-.06.329l.696 2.433a4.325 4.325 0 0 0-2.734 3.363l-.254 1.625a2.243 2.243 0 0 0 .511 1.813c.426.5 1.051.789 1.711.789h4.61c.66 0 1.285-.29 1.71-.79.43-.5.614-1.16.512-1.812zm-5.652-5.523h2.758l-.559 1.953a4.293 4.293 0 0 0-1.64 0zm4.824 8.473a1.49 1.49 0 0 1-1.14.527h-4.61a1.503 1.503 0 0 1-1.484-1.734l.258-1.625a3.573 3.573 0 0 1 2.738-2.926L9.07 17.78l.61.438 1.195-1.672v1.828h.75v-1.828l1.195 1.672.61-.438-1.387-1.941a3.573 3.573 0 0 1 2.738 2.926l.258 1.625c.066.433-.059.875-.344 1.207zm0 0"/>
  <path d="M21.41 15.316a4.94 4.94 0 0 0-3.36-4.191l.684-2.398a.365.365 0 0 0-.058-.329.377.377 0 0 0-.301-.148h-3.75a.377.377 0 0 0-.3.148.365.365 0 0 0-.06.329l.684 2.398c-.46.152-.894.371-1.289.648l.43.614c.453-.32.969-.547 1.512-.664l-1.637 1.91.57.484 1.59-1.851v2.359h.75v-2.36l1.59 1.852.57-.484-1.637-1.91a4.169 4.169 0 0 1 3.266 3.668l.508 5.086a1.5 1.5 0 0 1-1.492 1.648h-3.555v.75h3.555c.633 0 1.238-.27 1.668-.738a2.259 2.259 0 0 0 .57-1.735zM15.121 9h2.758l-.559 1.945a4.843 4.843 0 0 0-1.644 0zm0 0"/>
  <path d="M20.816 11.04a6.523 6.523 0 0 0-1.527-1.032l-.328.676a5.699 5.699 0 0 1 3.168 4.34l.742-.106a6.433 6.433 0 0 0-2.055-3.879zm0 0M3.223 21.625a1.502 1.502 0 0 1-.375-1.16l1-9.211a6.307 6.307 0 0 1 5.468-5.578L7.203 8.395l.594.46L9.75 6.344V9.75h.75V6.344l1.953 2.511.594-.46-2.113-2.72c1.449.192 2.789.876 3.793 1.942l.546-.515a7.078 7.078 0 0 0-3.046-1.903l1.039-3.594a.373.373 0 0 0-.36-.48H7.281a.37.37 0 0 0-.297.148.37.37 0 0 0-.066.325l.98 3.636a7.043 7.043 0 0 0-4.793 5.942l-1.003 9.207a2.27 2.27 0 0 0 .562 1.746c.43.473 1.035.746 1.676.746h2.035v-.75H4.34c-.426 0-.832-.18-1.117-.5zM7.77 1.875h4.636L11.5 5.012a7.075 7.075 0 0 0-2.879.023zm0 0"/>
  <path d="M2.36 11.094a7.822 7.822 0 0 1 3.113-5.438l-.446-.601a8.568 8.568 0 0 0-3.414 5.957l-.226 2.074.746.078zm0 0M1.223 14.586l.082-.75.746.078-.082.75zm0 0"/>
 </symbol>



</svg>