<svg xmlns="http://www.w3.org/2000/svg">

  <!-- general -->
  <symbol id="general" viewBox="0 0 24 24">
    <g>
      <path d="M7.356,1.482c0,0,1.762-0.865,3.229,1.677c1.026,1.777,2.991,5.181,2.991,5.181l5.196-3c0,0-1-1.732-1.75-3.031
        s-1.906-1.301-1.906-1.301l-5.234,0C7.934,0.928,7.356,1.482,7.356,1.482z"/>
      <path d="M9.72,3.659c-0.88-1.525-1.761-1.617-2.131-1.629C7.218,2.017,6.7,2.207,6.309,2.885S4.123,6.67,4.123,6.67l5.196,3
        l1.936-3.353L9.72,3.659z"/>
      <path d="M12.318,8.919l5.357,0.519l2.232-4.894c0.099-0.177-0.099-0.372-0.275-0.271l-7.411,4.272
        C12.046,8.647,12.115,8.916,12.318,8.919z"/>
    </g>
    <g>
      <path d="M23.55,14.042c0,0-0.132,1.958-3.067,1.958c-2.052,0-5.983,0-5.983,0v6c0,0,2,0,3.5,0s2.08-1,2.08-1l2.617-4.532
        C23.74,14.819,23.55,14.042,23.55,14.042z"/>
      <path d="M20.483,15c1.761,0,2.281-0.716,2.477-1.031c0.196-0.315,0.29-0.858-0.101-1.536C22.468,11.756,20.5,8.349,20.5,8.349
        l-5.196,3L17.412,15H20.483z"/>
      <path d="M14.628,14.62L11.5,19l3.122,4.38c0.104,0.174,0.371,0.1,0.372-0.103L15,14.723C15,14.52,14.732,14.446,14.628,14.62z"/>
    </g>
    <g>
      <path d="M4.921,21.785c0,0-1.63-1.094-0.163-3.635c1.026-1.777,2.819-5.48,2.819-5.48l-5.196-3c0,0-1,1.732-1.75,3.031
        s-0.001,2.6-0.001,2.6l2.617,4.532C4.152,21.562,4.921,21.785,4.921,21.785z"/>
      <path d="M5.625,18.65c-0.88,1.525-0.52,2.333-0.345,2.66c0.175,0.327,0.598,0.681,1.38,0.681s4.371,0,4.371,0l0-6l-3.871,0
        L5.625,18.65z"/>
      <path d="M8.708,13.471L6.479,8.572L1.125,9.086C0.922,9.089,0.852,9.358,1.028,9.459l7.406,4.282
        C8.609,13.843,8.807,13.648,8.708,13.471z"/>
    </g>
  </symbol>

  <!-- organic -->
  <!-- <symbol id="organic" viewBox="0 0 24 24">
    <path d="M19,8H5v0c0-1.105,0.895-2,2-2h10C18.105,6,19,6.895,19,8L19,8z"/>
    <path d="M14,5.008h-4c-1.105,0-2,0.895-2,2h8C16,5.903,15.105,5.008,14,5.008z"/>
    <path d="M5.74,9l0.748,12.25c0,0.966,0.28,1.75,1.246,1.75h8.532c0.966,0,1.246-0.784,1.246-1.75L18.26,9H5.74z"/>
  </symbol> -->

  <!-- special -->
  <symbol id="special" viewBox="0 0 24 24">
    <path d="M18,12H6c-0.552,0-1-0.448-1-1V4h14v7C19,11.552,18.552,12,18,12z"/>
    <path d="M20,3H4v0c0-1.105,0.716-2,1.6-2h12.8C19.284,1,20,1.895,20,3L20,3z"/>
    <path d="M4.75,23L4.75,23C4.336,23,4,22.664,4,22.25v-4.5C4,17.336,4.336,17,4.75,17h0c0.414,0,0.75,0.336,0.75,0.75v4.5
      C5.5,22.664,5.164,23,4.75,23z"/>
    <path d="M19.25,23L19.25,23c-0.414,0-0.75-0.336-0.75-0.75v-4.5c0-0.414,0.336-0.75,0.75-0.75l0,0c0.414,0,0.75,0.336,0.75,0.75
      v4.5C20,22.664,19.664,23,19.25,23z"/>
    <path d="M15.994,2C15.964,0.922,15.085,0.057,14,0.057h-4C8.915,0.057,8.036,0.922,8.006,2H15.994z"/>
    <path d="M16,6H8C6.895,6,6,6.895,6,8v13c0,1.105,0.895,2,2,2h0.55l0.953-9.053C9.529,13.693,9.744,13.5,10,13.5h4
      c0.256,0,0.471,0.193,0.497,0.447L15.45,23H16c1.105,0,2-0.895,2-2V8C18,6.895,17.105,6,16,6z"/>
    <polygon points="14.339,22 13.55,14.5 10.45,14.5 9.661,22   "/>
  </symbol>

  <!-- waste -->
  <symbol id="waste" viewBox="0 0 24 24">
    <path d="M18,3l-2,1l-2-1l-2,1l-2-1L8,4L6,3L5,3.5L6,17l-1,4c0,1.105,0.895,2,2,2h10c1.105,0,2-0.895,2-2l-1-4l1-13.5L18,3z
       M14.798,16.75c-1.626,1.626-3.981,1.951-5.525,0.855C8.658,18.222,7.951,19.5,7.951,19.5L7,19.246
      c1.938-2.761,3.378-4.328,6.203-6.349C13.203,12.897,9.5,14,8,16c-0.5-1.5-0.178-3.17,1.35-4.698c0.99-0.99,2.68-1.247,4.504-1.404
      C15.789,9.732,17,9.1,17,9.1S16.582,14.966,14.798,16.75z"/>
  </symbol>

  <!-- metal -->
  <symbol id="metal" viewBox="0 0 24 24">
    <path d="M22.875 10.875h-.984c.394-.332.609-.715.609-1.125 0-1.066-1.445-1.914-3.527-2.168l.453-.605a.393.393 0 0 0 .074-.227V6a1.875 1.875 0 0 0-3.75 0v.75c0 .082.027.16.074.227l.453.605c-2.082.254-3.527 1.102-3.527 2.168 0 .41.215.793.61 1.125h-.985a.375.375 0 0 0-.375.375v1.5c0 .207.168.375.375.375h.375V21h-.375a.375.375 0 0 0-.375.375v1.5c0 .207.168.375.375.375h10.5a.375.375 0 0 0 .375-.375v-1.5a.375.375 0 0 0-.375-.375H22.5v-7.875h.375a.375.375 0 0 0 .375-.375v-1.5a.375.375 0 0 0-.375-.375zM16.5 6.625V6a1.125 1.125 0 0 1 2.25 0v.625l-.664.883a17.837 17.837 0 0 0-.461-.008c-.156 0-.309.004-.46.008zm-3 3.125c0-.707 1.766-1.5 4.125-1.5 2.36 0 4.125.793 4.125 1.5 0 .344-.445.727-1.164 1.012a.987.987 0 0 0 .039-.262c0-.266-.129-.77-.996-1.14-.543-.231-1.254-.36-2.004-.36-.133 0-.266.004-.398.012l.046.75c.118-.008.235-.012.352-.012 1.395 0 2.25.484 2.25.75 0 .09-.121.234-.383.375h-4.508c-.902-.293-1.484-.73-1.484-1.125zm9 12.75h-9.75v-.75h9.75zm-.75-8.25h-2.625V15h2.625v1.125H16.5v.75h5.25v.75h-2.625v.75h2.625v.75H16.5v.75h5.25V21H13.5v-1.125h2.25v-.75H13.5v-.75h4.875v-.75H13.5v-.75h2.25v-.75H13.5V15H15v-.75h-1.5v-1.125h8.25zm.75-1.875h-9.75v-.75h9.75zm0 0"/>
    <path d="M15.602 9.367l.296.688c.22-.09.446-.16.676-.203l-.148-.735c-.285.055-.559.14-.824.25zm0 0M18.375 6A.375.375 0 0 0 18 5.625h-.75a.375.375 0 0 0 0 .75H18A.375.375 0 0 0 18.375 6zm0 0M16.125 14.25h.75V15h-.75zm0 0M17.625 14.25h.75V15h-.75zm0 0M2.36 23.14c.07.07.167.11.265.11h8.625v-.75H2.781l-.75-.75h9.219V21H9.375v-2.77a4.7 4.7 0 0 0-2.852-4.324 3.956 3.956 0 0 1-2.398-3.636V8.625h3.414a4.701 4.701 0 0 0 2.813 3.719l.296-.688a3.957 3.957 0 0 1-2.351-3.031H12v-.75H1.855L3.191 6h8.618l1.226 1.719.61-.438-1.043-1.457c.425-.27.617-.785.48-1.261A1.13 1.13 0 0 0 12 3.75H9.375V2.625a1.875 1.875 0 0 0-3.75 0V3.75H3c-.5 0-.941.332-1.082.813-.137.476.055.992.48 1.261L.82 8.031a.365.365 0 0 0-.07.219v13.125c0 .098.04.195.11.266zm-.86-6.109c.3.227.629.414.977.563A3.952 3.952 0 0 1 4.867 21H1.5zm4.727-2.437a3.956 3.956 0 0 1 2.398 3.636V21H5.617a4.698 4.698 0 0 0-2.844-4.094 3.985 3.985 0 0 1-1.273-.875V8.625h1.875v1.645a4.7 4.7 0 0 0 2.852 4.324zm.148-11.969a1.125 1.125 0 0 1 2.25 0V3.75h-2.25zM3 4.5h9a.375.375 0 0 1 0 .75H3a.375.375 0 0 1 0-.75zm0 0"/>
    <path d="M7.875 2.25h-.75a.375.375 0 0 0 0 .75h.75a.375.375 0 0 0 0-.75zm0 0"/>
  </symbol>

  <!-- organic -->
  <symbol id="organic" viewBox="0 0 24 24">
    <path d="M13.406 4.031a.47.47 0 0 0 .469-.468.47.47 0 0 0-.469-.47c-1.035 0-1.875.84-1.875 1.876v1.226a4.693 4.693 0 0 0-1.64-.289c-2.196 0-3.985 1.473-3.985 3.282 0 .257.211.468.469.468 1.445 0 2.344 1.168 2.344 3.047 0 1.867-.895 3.035-2.332 3.047h-.012a.47.47 0 0 0-.469.469c0 1.808 1.79 3.281 3.985 3.281.75 0 1.472-.172 2.109-.496.637.324 1.36.496 2.11.496 2.195 0 3.984-1.473 3.984-3.281a.47.47 0 0 0-.469-.469h-.012c-1.437-.012-2.332-1.18-2.332-3.047 0-1.879.899-3.047 2.344-3.047a.47.47 0 0 0 .469-.469c0-1.808-1.79-3.28-3.985-3.28-.57 0-1.129.097-1.64.288V4.97a.94.94 0 0 1 .937-.938zm.703 14.532a3.67 3.67 0 0 1-1.87-.497.455.455 0 0 0-.477 0 3.67 3.67 0 0 1-1.871.497c-1.473 0-2.704-.805-2.985-1.875h3.688A1.87 1.87 0 0 0 12 16.05c.344.39.848.637 1.406.637h3.688c-.282 1.07-1.512 1.875-2.985 1.875zm.235-5.86c0 1.106.277 2.246 1.039 3.047h-1.977a.94.94 0 0 1-.937-.938.47.47 0 0 0-.469-.468.47.47 0 0 0-.469.469.94.94 0 0 1-.937.937H8.617c.766-.8 1.04-1.941 1.04-3.047 0-1.105-.274-2.246-1.04-3.047h1.977a.94.94 0 0 1 .937.938c0 .258.211.469.469.469a.47.47 0 0 0 .469-.47.94.94 0 0 1 .937-.937h1.977c-.766.801-1.04 1.942-1.04 3.047zm2.75-3.984h-3.688A1.87 1.87 0 0 0 12 9.355a1.87 1.87 0 0 0-1.406-.636H6.906c.282-1.07 1.512-1.875 2.985-1.875a3.67 3.67 0 0 1 1.87.496c.145.09.333.09.477 0a3.67 3.67 0 0 1 1.871-.496c1.473 0 2.704.804 2.985 1.875zm0 0"/>
    <path d="M12.77 0a.47.47 0 0 0-.489.45.473.473 0 0 0 .45.487C18.53 1.18 23.07 6.04 23.062 12c-.004 3.547-1.833 7.137-4.598 9.11l-.324-.7a.473.473 0 0 0-.793-.094l-1.953 2.465a.467.467 0 0 0 .355.758l3.156.086a.465.465 0 0 0 .422-.664l-.457-.988C21.875 19.906 23.996 16.023 24 12 24.008 5.71 19.254.273 12.77 0zm3.94 22.629l.903-1.137.547 1.176zm0 0M3.984 19.875a.47.47 0 0 1-.468.469.47.47 0 0 1-.47-.469.47.47 0 0 1 .47-.469.47.47 0 0 1 .468.469zm0 0M4.8 21.656A11.344 11.344 0 0 0 11.23 24h.02a.469.469 0 0 0 .02-.938A10.369 10.369 0 0 1 5.37 20.91a.473.473 0 0 0-.66.09.468.468 0 0 0 .09.656zm0 0M0 12c0 2.25.648 4.473 1.867 6.426a.472.472 0 0 0 .649.148.468.468 0 0 0 .148-.644A11.184 11.184 0 0 1 .937 12c0-3.55 1.708-6.816 4.594-8.832l.328.703a.473.473 0 0 0 .793.094L8.605 1.5A.467.467 0 0 0 8.25.742L5.11.656a.47.47 0 0 0-.407.211.459.459 0 0 0-.031.453l.457.989A11.71 11.71 0 0 0 0 12zM7.29 1.652L6.386 2.79 5.84 1.613zm0 0"/>
  </symbol>

</svg>