<svg xmlns="http://www.w3.org/2000/svg">

  <!-- general -->
  <symbol id="general" viewBox="0 0 24 24">
    <g>
      <path d="M7.356,1.482c0,0,1.762-0.865,3.229,1.677c1.026,1.777,2.991,5.181,2.991,5.181l5.196-3c0,0-1-1.732-1.75-3.031
        s-1.906-1.301-1.906-1.301l-5.234,0C7.934,0.928,7.356,1.482,7.356,1.482z"/>
      <path d="M9.72,3.659c-0.88-1.525-1.761-1.617-2.131-1.629C7.218,2.017,6.7,2.207,6.309,2.885S4.123,6.67,4.123,6.67l5.196,3
        l1.936-3.353L9.72,3.659z"/>
      <path d="M12.318,8.919l5.357,0.519l2.232-4.894c0.099-0.177-0.099-0.372-0.275-0.271l-7.411,4.272
        C12.046,8.647,12.115,8.916,12.318,8.919z"/>
    </g>
    <g>
      <path d="M23.55,14.042c0,0-0.132,1.958-3.067,1.958c-2.052,0-5.983,0-5.983,0v6c0,0,2,0,3.5,0s2.08-1,2.08-1l2.617-4.532
        C23.74,14.819,23.55,14.042,23.55,14.042z"/>
      <path d="M20.483,15c1.761,0,2.281-0.716,2.477-1.031c0.196-0.315,0.29-0.858-0.101-1.536C22.468,11.756,20.5,8.349,20.5,8.349
        l-5.196,3L17.412,15H20.483z"/>
      <path d="M14.628,14.62L11.5,19l3.122,4.38c0.104,0.174,0.371,0.1,0.372-0.103L15,14.723C15,14.52,14.732,14.446,14.628,14.62z"/>
    </g>
    <g>
      <path d="M4.921,21.785c0,0-1.63-1.094-0.163-3.635c1.026-1.777,2.819-5.48,2.819-5.48l-5.196-3c0,0-1,1.732-1.75,3.031
        s-0.001,2.6-0.001,2.6l2.617,4.532C4.152,21.562,4.921,21.785,4.921,21.785z"/>
      <path d="M5.625,18.65c-0.88,1.525-0.52,2.333-0.345,2.66c0.175,0.327,0.598,0.681,1.38,0.681s4.371,0,4.371,0l0-6l-3.871,0
        L5.625,18.65z"/>
      <path d="M8.708,13.471L6.479,8.572L1.125,9.086C0.922,9.089,0.852,9.358,1.028,9.459l7.406,4.282
        C8.609,13.843,8.807,13.648,8.708,13.471z"/>
    </g>
  </symbol>


  <!-- metal -->
  <symbol id="metal" viewBox="0 0 24 24">
    <path d="M22.875 10.875h-.984c.394-.332.609-.715.609-1.125 0-1.066-1.445-1.914-3.527-2.168l.453-.605a.393.393 0 0 0 .074-.227V6a1.875 1.875 0 0 0-3.75 0v.75c0 .082.027.16.074.227l.453.605c-2.082.254-3.527 1.102-3.527 2.168 0 .41.215.793.61 1.125h-.985a.375.375 0 0 0-.375.375v1.5c0 .207.168.375.375.375h.375V21h-.375a.375.375 0 0 0-.375.375v1.5c0 .207.168.375.375.375h10.5a.375.375 0 0 0 .375-.375v-1.5a.375.375 0 0 0-.375-.375H22.5v-7.875h.375a.375.375 0 0 0 .375-.375v-1.5a.375.375 0 0 0-.375-.375zM16.5 6.625V6a1.125 1.125 0 0 1 2.25 0v.625l-.664.883a17.837 17.837 0 0 0-.461-.008c-.156 0-.309.004-.46.008zm-3 3.125c0-.707 1.766-1.5 4.125-1.5 2.36 0 4.125.793 4.125 1.5 0 .344-.445.727-1.164 1.012a.987.987 0 0 0 .039-.262c0-.266-.129-.77-.996-1.14-.543-.231-1.254-.36-2.004-.36-.133 0-.266.004-.398.012l.046.75c.118-.008.235-.012.352-.012 1.395 0 2.25.484 2.25.75 0 .09-.121.234-.383.375h-4.508c-.902-.293-1.484-.73-1.484-1.125zm9 12.75h-9.75v-.75h9.75zm-.75-8.25h-2.625V15h2.625v1.125H16.5v.75h5.25v.75h-2.625v.75h2.625v.75H16.5v.75h5.25V21H13.5v-1.125h2.25v-.75H13.5v-.75h4.875v-.75H13.5v-.75h2.25v-.75H13.5V15H15v-.75h-1.5v-1.125h8.25zm.75-1.875h-9.75v-.75h9.75zm0 0"/>
    <path d="M15.602 9.367l.296.688c.22-.09.446-.16.676-.203l-.148-.735c-.285.055-.559.14-.824.25zm0 0M18.375 6A.375.375 0 0 0 18 5.625h-.75a.375.375 0 0 0 0 .75H18A.375.375 0 0 0 18.375 6zm0 0M16.125 14.25h.75V15h-.75zm0 0M17.625 14.25h.75V15h-.75zm0 0M2.36 23.14c.07.07.167.11.265.11h8.625v-.75H2.781l-.75-.75h9.219V21H9.375v-2.77a4.7 4.7 0 0 0-2.852-4.324 3.956 3.956 0 0 1-2.398-3.636V8.625h3.414a4.701 4.701 0 0 0 2.813 3.719l.296-.688a3.957 3.957 0 0 1-2.351-3.031H12v-.75H1.855L3.191 6h8.618l1.226 1.719.61-.438-1.043-1.457c.425-.27.617-.785.48-1.261A1.13 1.13 0 0 0 12 3.75H9.375V2.625a1.875 1.875 0 0 0-3.75 0V3.75H3c-.5 0-.941.332-1.082.813-.137.476.055.992.48 1.261L.82 8.031a.365.365 0 0 0-.07.219v13.125c0 .098.04.195.11.266zm-.86-6.109c.3.227.629.414.977.563A3.952 3.952 0 0 1 4.867 21H1.5zm4.727-2.437a3.956 3.956 0 0 1 2.398 3.636V21H5.617a4.698 4.698 0 0 0-2.844-4.094 3.985 3.985 0 0 1-1.273-.875V8.625h1.875v1.645a4.7 4.7 0 0 0 2.852 4.324zm.148-11.969a1.125 1.125 0 0 1 2.25 0V3.75h-2.25zM3 4.5h9a.375.375 0 0 1 0 .75H3a.375.375 0 0 1 0-.75zm0 0"/>
    <path d="M7.875 2.25h-.75a.375.375 0 0 0 0 .75h.75a.375.375 0 0 0 0-.75zm0 0"/>
  </symbol>

  <!-- organic -->
  <symbol id="organic" viewBox="0 0 24 24">
    <path d="M13.406 4.031a.47.47 0 0 0 .469-.468.47.47 0 0 0-.469-.47c-1.035 0-1.875.84-1.875 1.876v1.226a4.693 4.693 0 0 0-1.64-.289c-2.196 0-3.985 1.473-3.985 3.282 0 .257.211.468.469.468 1.445 0 2.344 1.168 2.344 3.047 0 1.867-.895 3.035-2.332 3.047h-.012a.47.47 0 0 0-.469.469c0 1.808 1.79 3.281 3.985 3.281.75 0 1.472-.172 2.109-.496.637.324 1.36.496 2.11.496 2.195 0 3.984-1.473 3.984-3.281a.47.47 0 0 0-.469-.469h-.012c-1.437-.012-2.332-1.18-2.332-3.047 0-1.879.899-3.047 2.344-3.047a.47.47 0 0 0 .469-.469c0-1.808-1.79-3.28-3.985-3.28-.57 0-1.129.097-1.64.288V4.97a.94.94 0 0 1 .937-.938zm.703 14.532a3.67 3.67 0 0 1-1.87-.497.455.455 0 0 0-.477 0 3.67 3.67 0 0 1-1.871.497c-1.473 0-2.704-.805-2.985-1.875h3.688A1.87 1.87 0 0 0 12 16.05c.344.39.848.637 1.406.637h3.688c-.282 1.07-1.512 1.875-2.985 1.875zm.235-5.86c0 1.106.277 2.246 1.039 3.047h-1.977a.94.94 0 0 1-.937-.938.47.47 0 0 0-.469-.468.47.47 0 0 0-.469.469.94.94 0 0 1-.937.937H8.617c.766-.8 1.04-1.941 1.04-3.047 0-1.105-.274-2.246-1.04-3.047h1.977a.94.94 0 0 1 .937.938c0 .258.211.469.469.469a.47.47 0 0 0 .469-.47.94.94 0 0 1 .937-.937h1.977c-.766.801-1.04 1.942-1.04 3.047zm2.75-3.984h-3.688A1.87 1.87 0 0 0 12 9.355a1.87 1.87 0 0 0-1.406-.636H6.906c.282-1.07 1.512-1.875 2.985-1.875a3.67 3.67 0 0 1 1.87.496c.145.09.333.09.477 0a3.67 3.67 0 0 1 1.871-.496c1.473 0 2.704.804 2.985 1.875zm0 0"/>
    <path d="M12.77 0a.47.47 0 0 0-.489.45.473.473 0 0 0 .45.487C18.53 1.18 23.07 6.04 23.062 12c-.004 3.547-1.833 7.137-4.598 9.11l-.324-.7a.473.473 0 0 0-.793-.094l-1.953 2.465a.467.467 0 0 0 .355.758l3.156.086a.465.465 0 0 0 .422-.664l-.457-.988C21.875 19.906 23.996 16.023 24 12 24.008 5.71 19.254.273 12.77 0zm3.94 22.629l.903-1.137.547 1.176zm0 0M3.984 19.875a.47.47 0 0 1-.468.469.47.47 0 0 1-.47-.469.47.47 0 0 1 .47-.469.47.47 0 0 1 .468.469zm0 0M4.8 21.656A11.344 11.344 0 0 0 11.23 24h.02a.469.469 0 0 0 .02-.938A10.369 10.369 0 0 1 5.37 20.91a.473.473 0 0 0-.66.09.468.468 0 0 0 .09.656zm0 0M0 12c0 2.25.648 4.473 1.867 6.426a.472.472 0 0 0 .649.148.468.468 0 0 0 .148-.644A11.184 11.184 0 0 1 .937 12c0-3.55 1.708-6.816 4.594-8.832l.328.703a.473.473 0 0 0 .793.094L8.605 1.5A.467.467 0 0 0 8.25.742L5.11.656a.47.47 0 0 0-.407.211.459.459 0 0 0-.031.453l.457.989A11.71 11.71 0 0 0 0 12zM7.29 1.652L6.386 2.79 5.84 1.613zm0 0"/>
  </symbol>

  <!-- waste -->
  <symbol id="waste" viewBox="0 0 24 24">
    <path d="M15.523 18.648a4.325 4.325 0 0 0-2.734-3.363l.695-2.433a.365.365 0 0 0-.058-.329.377.377 0 0 0-.301-.148h-3.75a.377.377 0 0 0-.3.148.365.365 0 0 0-.06.329l.696 2.433a4.325 4.325 0 0 0-2.734 3.363l-.254 1.625a2.243 2.243 0 0 0 .511 1.813c.426.5 1.051.789 1.711.789h4.61c.66 0 1.285-.29 1.71-.79.43-.5.614-1.16.512-1.812zm-5.652-5.523h2.758l-.559 1.953a4.293 4.293 0 0 0-1.64 0zm4.824 8.473a1.49 1.49 0 0 1-1.14.527h-4.61a1.503 1.503 0 0 1-1.484-1.734l.258-1.625a3.573 3.573 0 0 1 2.738-2.926L9.07 17.78l.61.438 1.195-1.672v1.828h.75v-1.828l1.195 1.672.61-.438-1.387-1.941a3.573 3.573 0 0 1 2.738 2.926l.258 1.625c.066.433-.059.875-.344 1.207zm0 0"/>
    <path d="M21.41 15.316a4.94 4.94 0 0 0-3.36-4.191l.684-2.398a.365.365 0 0 0-.058-.329.377.377 0 0 0-.301-.148h-3.75a.377.377 0 0 0-.3.148.365.365 0 0 0-.06.329l.684 2.398c-.46.152-.894.371-1.289.648l.43.614c.453-.32.969-.547 1.512-.664l-1.637 1.91.57.484 1.59-1.851v2.359h.75v-2.36l1.59 1.852.57-.484-1.637-1.91a4.169 4.169 0 0 1 3.266 3.668l.508 5.086a1.5 1.5 0 0 1-1.492 1.648h-3.555v.75h3.555c.633 0 1.238-.27 1.668-.738a2.259 2.259 0 0 0 .57-1.735zM15.121 9h2.758l-.559 1.945a4.843 4.843 0 0 0-1.644 0zm0 0"/>
    <path d="M20.816 11.04a6.523 6.523 0 0 0-1.527-1.032l-.328.676a5.699 5.699 0 0 1 3.168 4.34l.742-.106a6.433 6.433 0 0 0-2.055-3.879zm0 0M3.223 21.625a1.502 1.502 0 0 1-.375-1.16l1-9.211a6.307 6.307 0 0 1 5.468-5.578L7.203 8.395l.594.46L9.75 6.344V9.75h.75V6.344l1.953 2.511.594-.46-2.113-2.72c1.449.192 2.789.876 3.793 1.942l.546-.515a7.078 7.078 0 0 0-3.046-1.903l1.039-3.594a.373.373 0 0 0-.36-.48H7.281a.37.37 0 0 0-.297.148.37.37 0 0 0-.066.325l.98 3.636a7.043 7.043 0 0 0-4.793 5.942l-1.003 9.207a2.27 2.27 0 0 0 .562 1.746c.43.473 1.035.746 1.676.746h2.035v-.75H4.34c-.426 0-.832-.18-1.117-.5zM7.77 1.875h4.636L11.5 5.012a7.075 7.075 0 0 0-2.879.023zm0 0"/>
    <path d="M2.36 11.094a7.822 7.822 0 0 1 3.113-5.438l-.446-.601a8.568 8.568 0 0 0-3.414 5.957l-.226 2.074.746.078zm0 0M1.223 14.586l.082-.75.746.078-.082.75zm0 0"/>
  </symbol>

  <!-- special -->
  <symbol id="special" viewBox="0 0 24 24">
    <path d="M22.34 2.266h-7.137V1.64c0-.907-.738-1.641-1.64-1.641h-3.126c-.902 0-1.64.734-1.64 1.64v.626H1.66c-.625 0-1.129.504-1.129 1.125v1.632c0 .622.504 1.125 1.13 1.125h1.148l1.418 15.813A2.234 2.234 0 0 0 6.46 24h11.078a2.234 2.234 0 0 0 2.234-2.04l.086-.96a.353.353 0 0 0-.703-.063l-.086.961a1.529 1.529 0 0 1-1.53 1.399H6.46c-.8 0-1.46-.602-1.53-1.399L3.516 6.148H4.93a.35.35 0 0 0 .351-.351.353.353 0 0 0-.351-.352H1.66a.423.423 0 0 1-.426-.422V3.391c0-.235.192-.422.426-.422h20.68c.234 0 .426.187.426.422v1.632a.423.423 0 0 1-.426.422H6.574a.353.353 0 0 0-.351.352.35.35 0 0 0 .351.351h13.91l-1.18 13.133a.356.356 0 0 0 .321.383h.031c.18 0 .332-.137.352-.32L21.19 6.148h1.149c.625 0 1.129-.503 1.129-1.125V3.391c0-.621-.504-1.125-1.13-1.125zm-7.84 0h-5V1.64a.94.94 0 0 1 .938-.938h3.124a.94.94 0 0 1 .938.938zm0 0"/>
    <path d="M5.402 14.484A6.602 6.602 0 0 0 12 21.082a6.602 6.602 0 0 0 6.598-6.598A6.602 6.602 0 0 0 12 7.887a6.602 6.602 0 0 0-6.598 6.597zm12.493 0A5.902 5.902 0 0 1 12 20.38a5.902 5.902 0 0 1-5.895-5.895A5.902 5.902 0 0 1 12 8.59a5.902 5.902 0 0 1 5.895 5.894zm0 0"/>
    <path d="M10.945 14.469a1.055 1.055 0 1 0 2.11-.001 1.055 1.055 0 0 0-2.11 0zM12 14.117c.191 0 .352.16.352.352 0 .191-.16.351-.352.351a.355.355 0 0 1-.352-.351c0-.192.16-.352.352-.352zm0 0M13.238 16.035a.54.54 0 0 0-.668-.226 1.48 1.48 0 0 1-1.14 0 .54.54 0 0 0-.668.226l-1.153 2a.535.535 0 0 0 .223.746c1.363.68 2.98.676 4.336 0a.535.535 0 0 0 .223-.746zm-2.93 2.192l.993-1.715c.453.152.945.152 1.398 0l.992 1.715a4.15 4.15 0 0 1-3.382 0zm0 0M10.531 14.25c.051-.387.258-.746.57-.988.211-.16.27-.457.137-.692l-1.156-1.996a.53.53 0 0 0-.758-.18 4.86 4.86 0 0 0-2.168 3.754.54.54 0 0 0 .535.567H10c.266 0 .496-.2.531-.465zm-2.656-.238a4.137 4.137 0 0 1 1.691-2.93l.993 1.719c-.36.316-.606.742-.7 1.21zm0 0M12.898 13.262c.313.242.52.601.57.988a.538.538 0 0 0 .532.465h2.309c.304 0 .55-.258.535-.567a4.856 4.856 0 0 0-2.168-3.753.53.53 0 0 0-.758.18l-1.156 1.995a.537.537 0 0 0 .136.692zm1.536-2.18a4.137 4.137 0 0 1 1.691 2.93h-1.984a2.186 2.186 0 0 0-.7-1.211zm0 0"/>
  </symbol>

  <!-- cargotram -->
  <symbol id="cargotram" viewBox="0 0 24 24">
    <path d="M23.613 19.742v-8.515c0-.856-.695-1.551-1.55-1.551h-1.934v-.387h.387a.385.385 0 0 0 .386-.387.385.385 0 0 0-.386-.386h-6.508a2.319 2.319 0 0 0-2.945-.961L5.288 2.422a.385.385 0 0 0-.547.031.392.392 0 0 0 .031.547l5.625 4.996a2.389 2.389 0 0 0-.406.52H3.484a.385.385 0 0 0-.386.386c0 .215.172.387.386.387h.387v.387H1.938c-.856 0-1.551.695-1.551 1.55v8.516A.385.385 0 0 0 0 20.13c0 .215.172.387.387.387h3.87a.385.385 0 0 0 .388-.387v-.774h.597a1.53 1.53 0 0 0-.21.774 1.549 1.549 0 0 0 2.71 1.023 1.55 1.55 0 0 0 2.66-.636h3.196a1.547 1.547 0 0 0 2.66.636 1.55 1.55 0 0 0 2.71-1.023 1.53 1.53 0 0 0-.21-.774h.597v.774c0 .215.172.387.387.387h3.871a.385.385 0 0 0 .387-.387.385.385 0 0 0-.387-.387zM20.13 12h2.71v6.582h-2.71zM12 8.129c.383 0 .746.14 1.023.387h-2.046c.277-.246.64-.387 1.023-.387zm-7.355 1.16h14.71v.387H4.645zm-2.707 1.164h20.125c.43 0 .777.348.777.774h-3.098a.385.385 0 0 0-.387.386v3.871h-.773V12c0-.016-.004-.031-.004-.043a.384.384 0 0 0-.226-.398c-.477-.215-1.082-.332-1.707-.332-.555 0-1.098.093-1.547.265a4.421 4.421 0 0 0-1.551-.265c-.555 0-1.098.093-1.547.265a4.415 4.415 0 0 0-1.547-.265c-.558 0-1.101.093-1.55.265a4.415 4.415 0 0 0-1.548-.265c-.625 0-1.23.117-1.707.332a.384.384 0 0 0-.226.398c0 .012-.004.027-.004.043v3.484h-.773v-3.87a.385.385 0 0 0-.387-.387H1.16c0-.426.348-.774.778-.774zm13.546 5.031v-1.937h2.32v1.937zm-3.097 0v-1.937h2.324v1.937zm-3.098 0v-1.937h2.324v1.937zm-3.094 0v-1.937h2.32v1.937zm11.61-2.71h-2.32v-.598c.34-.114.742-.176 1.16-.176.418 0 .82.063 1.16.176zm-3.094-.598v.597h-2.324v-.597c.34-.114.742-.176 1.16-.176.422 0 .824.063 1.164.176zm-3.098 0v.597H9.29v-.597c.34-.114.742-.176 1.164-.176.418 0 .82.063 1.16.176zm-3.097 0v.597h-2.32v-.597A3.71 3.71 0 0 1 7.355 12c.417 0 .82.063 1.16.176zM1.16 12h2.711v6.582h-2.71zm2.711 7.742h-2.71v-.387h2.71zm2.711 1.16a.776.776 0 0 1-.777-.773.776.776 0 0 1 1.445-.387h-.668a.385.385 0 0 0-.387.387c0 .215.172.387.387.387h.668a.772.772 0 0 1-.668.386zm9.184-1.16h-1.34a.772.772 0 1 1 1.34 0zm-2.168 0h-3.196a1.526 1.526 0 0 0-.16-.387h3.516c-.07.122-.125.25-.16.387zm-4.024 0h-1.34a.772.772 0 0 1 1.34 0zm-.672 1.16a.772.772 0 0 1-.668-.386h1.34a.783.783 0 0 1-.672.386zm6.196 0a.783.783 0 0 1-.672-.386h1.34a.772.772 0 0 1-.668.386zm3.097-.773a.776.776 0 0 1-1.445.387h.668a.385.385 0 0 0 .387-.387.385.385 0 0 0-.387-.387h-.668a.776.776 0 0 1 1.445.387zm-13.55-1.547v-2.324h14.71v2.324zm15.484.773h2.71v.387h-2.71zm0 0"/>
  </symbol>

  <!-- paper -->
  <symbol id="paper" viewBox="0 0 24 24">
    <path d="M5.64 15.676c.2.344.555.547.95.547h1.695a.35.35 0 0 0 .352-.352.35.35 0 0 0-.352-.351H6.59a.39.39 0 0 1-.34-.586l.96-1.664.067.558c.024.18.176.309.352.309h.039a.351.351 0 0 0 .309-.39l-.149-1.27a.61.61 0 0 0-.27-.434c-.011-.008-.019-.016-.03-.023-.012-.004-.024-.012-.036-.016a.601.601 0 0 0-.512-.016l-1.171.504a.35.35 0 0 0-.184.461c.074.18.281.262.46.188l.52-.223-.964 1.664c-.196.344-.196.75 0 1.094zm0 0"/>
    <path d="M21.73 6.133c.196 0 .352-.16.352-.352V4.676A4.678 4.678 0 0 0 17.41 0H8.305C7.652 0 7.12.531 7.12 1.184v3.699h-4.02c-.652 0-1.183.531-1.183 1.187v14.774a.35.35 0 0 0 .352.351.353.353 0 0 0 .351-.351V6.07c0-.265.215-.484.48-.484h8.848c.266.875.313 1.8.14 2.7-.073.386.052.78.329 1.062.277.277.672.398 1.059.324a5.687 5.687 0 0 1 2.699.14v13.004a.48.48 0 0 1-.48.48H3.101a.48.48 0 0 1-.48-.48v-.32a.353.353 0 0 0-.352-.351.35.35 0 0 0-.352.351v.32c0 .653.531 1.184 1.184 1.184h12.593c.653 0 1.184-.531 1.184-1.184v-3.699h4.02c.652 0 1.183-.531 1.183-1.187V7.445a.35.35 0 0 0-.352-.351.353.353 0 0 0-.351.351V17.93a.483.483 0 0 1-.48.484h-4.02v-3.016h2.168a.35.35 0 0 0 .351-.351.353.353 0 0 0-.351-.352h-2.168v-1.629h2.168c.195 0 .351-.16.351-.351a.35.35 0 0 0-.351-.352h-2.168V10.73h2.168c.195 0 .351-.16.351-.351a.35.35 0 0 0-.351-.352h-2.168V9.56a4.681 4.681 0 0 0-4.676-4.676H7.824v-3.7a.48.48 0 0 1 .48-.48h8.848c.266.871.317 1.8.141 2.7a1.192 1.192 0 0 0 1.39 1.386 5.673 5.673 0 0 1 2.696.14v.852c0 .192.16.352.351.352zm-5.585 2.941a6.376 6.376 0 0 0-2.797-.094.47.47 0 0 1-.434-.132.472.472 0 0 1-.133-.43c.18-.93.145-1.887-.094-2.8a3.973 3.973 0 0 1 3.458 3.456zm2.406-4.976a.473.473 0 0 1-.434-.133.475.475 0 0 1-.133-.43c.18-.93.145-1.89-.093-2.8a3.98 3.98 0 0 1 3.46 3.456 6.337 6.337 0 0 0-2.8-.093zm0 0"/>
    <path d="M11.777 18.844v.453a.35.35 0 0 0 .352.351.353.353 0 0 0 .351-.351v-.453a.353.353 0 0 0-.351-.352.35.35 0 0 0-.352.352zm0 0M6.316 18.844v.453a.35.35 0 0 0 .352.351.35.35 0 0 0 .352-.351v-.453a.35.35 0 0 0-.352-.352.35.35 0 0 0-.352.352zm0 0M11.766 10.516a.347.347 0 0 0-.391.304l-.066.563-.965-1.664a1.075 1.075 0 0 0-.946-.547c-.394 0-.75.203-.949.547l-.933 1.617a.352.352 0 1 0 .609.351l.934-1.617a.38.38 0 0 1 .34-.195c.066 0 .234.016.335.195l.965 1.664-.52-.222a.347.347 0 0 0-.46.183.347.347 0 0 0 .183.461l1.176.504a.605.605 0 0 0 .543-.031h.004c.008-.008.02-.012.027-.02a.617.617 0 0 0 .27-.433l.148-1.27a.349.349 0 0 0-.304-.39zm0 0M9.852 19.086a.597.597 0 0 1-.907 0 .356.356 0 0 0-.496-.035.349.349 0 0 0-.035.496 1.3 1.3 0 0 0 1.969 0 .349.349 0 0 0-.035-.496.356.356 0 0 0-.496.035zm0 0M13.152 15.676c.2-.344.2-.75 0-1.094l-.847-1.469-.086-.152a.352.352 0 1 0-.61.352l.938 1.62a.476.476 0 0 1 .05.184.39.39 0 0 1-.39.402h-1.922l.45-.335a.355.355 0 0 0 .074-.493.355.355 0 0 0-.493-.074l-1.027.766a.606.606 0 0 0-.242.449v.078c.012.18.098.34.242.45l1.027.765a.348.348 0 0 0 .493-.074.355.355 0 0 0-.075-.492l-.449-.336h1.922c.395 0 .75-.203.945-.547zm0 0"/>
  </symbol>

  <!-- cardboard -->
  <symbol id="cardboard" viewBox="0 0 24 24">
    <path d="M1.125 18.75H9.75V18H1.5V7.5h4.875v3a.375.375 0 0 0 .64.266l.86-.86.86.86a.38.38 0 0 0 .53 0l.86-.86.86.86a.375.375 0 1 0 .64-.266v-3H16.5v2.25h.75V1.125a.375.375 0 0 0-.375-.375H1.125a.375.375 0 0 0-.375.375v17.25c0 .207.168.375.375.375zm9.75-9.156l-.484-.485a.38.38 0 0 0-.532 0L9 9.97l-.86-.86a.38.38 0 0 0-.53 0l-.485.485V7.5h3.75zM7.125 6.75V1.5h3.75v5.25zm9.375 0h-4.875V1.5H16.5zM6.375 1.5v5.25H1.5V1.5zm0 0"/>
    <path d="M2.25 8.25h1.875V9H2.25zm0 0M4.875 8.25h.75V9h-.75zm0 0M2.25 9.75h3.375v.75H2.25zm0 0M12.375 9.75h2.25v.75h-2.25zm0 0M13.875 8.25h1.875V9h-1.875zm0 0M12.375 8.25h.75V9h-.75zm0 0M2.25 16.875c0 .207.168.375.375.375h6A.375.375 0 0 0 9 16.875v-1.5A.375.375 0 0 0 8.625 15h-6a.375.375 0 0 0-.375.375zm3-.375H4.5v-.75h.75zm.75-.75h.75v.75H6zm2.25.75H7.5v-.75h.75zM3 15.75h.75v.75H3zm0 0M10.5 16.875a6.382 6.382 0 0 0 6.375 6.375 6.382 6.382 0 0 0 6.375-6.375 6.382 6.382 0 0 0-6.375-6.375 6.382 6.382 0 0 0-6.375 6.375zm12 0a5.626 5.626 0 0 1-5.625 5.625 5.626 5.626 0 0 1-5.625-5.625 5.626 5.626 0 0 1 5.625-5.625 5.631 5.631 0 0 1 5.625 5.625zm0 0"/>
    <path d="M16.875 19.875a3.002 3.002 0 0 1-2.992-2.805l.742-.496.766.512c.078.547.449 1.008.968 1.2.52.187 1.102.077 1.516-.294l-.5-.558a.742.742 0 0 1-.805.125.743.743 0 0 1-.445-.684.375.375 0 0 0-.168-.313l-1.125-.75a.38.38 0 0 0-.414 0l-1.125.75a.375.375 0 0 0-.168.313 3.754 3.754 0 0 0 2.66 3.59 3.753 3.753 0 0 0 4.207-1.508l-.62-.414a3.004 3.004 0 0 1-2.497 1.332zm0 0M13.758 14.793l.62.414a3.008 3.008 0 0 1 3.274-1.23 2.998 2.998 0 0 1 2.215 2.703l-.742.496-.766-.512a1.504 1.504 0 0 0-.968-1.2 1.504 1.504 0 0 0-1.516.294l.5.558a.742.742 0 0 1 .805-.125.743.743 0 0 1 .445.684c0 .125.063.242.168.313l1.125.75a.38.38 0 0 0 .414 0l1.125-.75a.375.375 0 0 0 .168-.313 3.754 3.754 0 0 0-2.66-3.59 3.753 3.753 0 0 0-4.207 1.508zm0 0"/>
  </symbol>

</svg>