<svg xmlns="http://www.w3.org/2000/svg">

  <!-- special -->
  <symbol id="special" viewBox="0 0 24 24">
    <path d="M21.129 2.89H2.87l1.707 19.04a1.887 1.887 0 0 0 1.883 1.718h11.078c.98 0 1.797-.746 1.883-1.718zm0 0" fill="#ffd064"/>
    <path d="M18.176 2.89l-1.707 19.04a1.887 1.887 0 0 1-1.883 1.718h2.953c.98 0 1.797-.746 1.883-1.718l1.707-19.04zm0 0" fill="#ffc250"/>
    <path d="M22.34 5.797H1.66a.776.776 0 0 1-.777-.774V3.391c0-.426.347-.774.777-.774h20.68c.43 0 .777.348.777.774v1.632a.776.776 0 0 1-.777.774zm0 0" fill="#8e99a3"/>
    <path d="M22.34 2.617h-2.2v2.406a.776.776 0 0 1-.777.774h2.977c.43 0 .777-.348.777-.774V3.391a.776.776 0 0 0-.777-.774zm0 0" fill="#7f8993"/>
    <path d="M18.246 14.484a6.247 6.247 0 1 1-12.493 0 6.247 6.247 0 0 1 12.493 0zm0 0" fill="#eff2f4"/>
    <path d="M12 8.238a6.44 6.44 0 0 0-1.488.176 6.255 6.255 0 0 1 4.761 6.07 6.255 6.255 0 0 1-4.761 6.07c.476.118.976.176 1.488.176a6.247 6.247 0 0 0 0-12.492zm0 0" fill="#f1f1f4"/>
    <path d="M12.703 14.469a.705.705 0 0 1-.703.703.705.705 0 0 1-.703-.703c0-.387.316-.703.703-.703.387 0 .703.316.703.703zm0 0" fill="#ffc250"/>
    <path d="M12 18.941c-.7 0-1.39-.164-2.012-.476a.18.18 0 0 1-.074-.254l1.152-2c.047-.078.145-.113.23-.078.224.094.462.14.704.14.242 0 .48-.046.703-.14a.187.187 0 0 1 .23.078l1.153 2a.18.18 0 0 1-.074.254A4.484 4.484 0 0 1 12 18.94zm0 0M7.691 14.363a.186.186 0 0 1-.183-.195 4.56 4.56 0 0 1 .562-1.922l.063-.11a4.55 4.55 0 0 1 1.387-1.448.18.18 0 0 1 .257.062l1.157 1.996a.186.186 0 0 1-.047.238c-.387.297-.64.739-.707 1.22a.182.182 0 0 1-.18.16zm0 0M13.82 14.203a1.862 1.862 0 0 0-.707-1.219.186.186 0 0 1-.047-.238l1.157-1.996a.18.18 0 0 1 .257-.063c.563.372 1.04.872 1.387 1.454l.063.109c.328.586.52 1.246.562 1.918a.186.186 0 0 1-.183.195H14a.182.182 0 0 1-.18-.16zm0 0" fill="#ffd064"/>
    <path d="M14.012 18.465a.18.18 0 0 0 .074-.254l-.02-.035a5.82 5.82 0 0 1-.336.418c.094-.04.188-.082.282-.13zm0 0" fill="#e5a32e"/>
    <path d="M16.492 14.168a4.527 4.527 0 0 0-.562-1.918l-.063-.11a4.524 4.524 0 0 0-1.387-1.453.18.18 0 0 0-.257.063l-.086.145a6.219 6.219 0 0 1 1.133 3.468h1.039c.105 0 .187-.09.183-.195zm0 0" fill="#ffc250"/>
    <path d="M22.34 2.266h-7.137V1.64c0-.907-.738-1.641-1.64-1.641h-3.126c-.902 0-1.64.734-1.64 1.64v.626H1.66c-.625 0-1.129.504-1.129 1.125v1.632c0 .622.504 1.125 1.13 1.125h1.148l1.418 15.813A2.234 2.234 0 0 0 6.46 24h11.078a2.234 2.234 0 0 0 2.234-2.04l.086-.96a.353.353 0 0 0-.703-.063l-.086.961a1.529 1.529 0 0 1-1.53 1.399H6.46c-.8 0-1.46-.602-1.53-1.399L3.516 6.148H4.93a.35.35 0 0 0 .351-.351.353.353 0 0 0-.351-.352H1.66a.423.423 0 0 1-.426-.422V3.391c0-.235.192-.422.426-.422h20.68c.234 0 .426.187.426.422v1.632a.423.423 0 0 1-.426.422H6.574a.353.353 0 0 0-.351.352.35.35 0 0 0 .351.351h13.91l-1.18 13.133a.356.356 0 0 0 .321.383h.031c.18 0 .332-.137.352-.32L21.19 6.148h1.149c.625 0 1.129-.503 1.129-1.125V3.391c0-.621-.504-1.125-1.13-1.125zm-7.84 0h-5V1.64a.94.94 0 0 1 .938-.938h3.124a.94.94 0 0 1 .938.938zm0 0"/>
    <path d="M5.402 14.484A6.602 6.602 0 0 0 12 21.082a6.602 6.602 0 0 0 6.598-6.598A6.602 6.602 0 0 0 12 7.887a6.602 6.602 0 0 0-6.598 6.597zm12.493 0A5.902 5.902 0 0 1 12 20.38a5.902 5.902 0 0 1-5.895-5.895A5.902 5.902 0 0 1 12 8.59a5.902 5.902 0 0 1 5.895 5.894zm0 0"/>
    <path d="M10.945 14.469a1.055 1.055 0 1 0 2.11-.001 1.055 1.055 0 0 0-2.11 0zM12 14.117c.191 0 .352.16.352.352 0 .191-.16.351-.352.351a.355.355 0 0 1-.352-.351c0-.192.16-.352.352-.352zm0 0M13.238 16.035a.54.54 0 0 0-.668-.226 1.48 1.48 0 0 1-1.14 0 .54.54 0 0 0-.668.226l-1.153 2a.535.535 0 0 0 .223.746c1.363.68 2.98.676 4.336 0a.535.535 0 0 0 .223-.746zm-2.93 2.192l.993-1.715c.453.152.945.152 1.398 0l.992 1.715a4.15 4.15 0 0 1-3.382 0zm0 0M10.531 14.25c.051-.387.258-.746.57-.988.211-.16.27-.457.137-.692l-1.156-1.996a.53.53 0 0 0-.758-.18 4.86 4.86 0 0 0-2.168 3.754.54.54 0 0 0 .535.567H10c.266 0 .496-.2.531-.465zm-2.656-.238a4.137 4.137 0 0 1 1.691-2.93l.993 1.719c-.36.316-.606.742-.7 1.21zm0 0M12.898 13.262c.313.242.52.601.57.988a.538.538 0 0 0 .532.465h2.309c.304 0 .55-.258.535-.567a4.856 4.856 0 0 0-2.168-3.753.53.53 0 0 0-.758.18l-1.156 1.995a.537.537 0 0 0 .136.692zm1.536-2.18a4.137 4.137 0 0 1 1.691 2.93h-1.984a2.186 2.186 0 0 0-.7-1.211zm0 0"/>
  </symbol>

<!-- waste -->
<symbol id="waste" viewBox="0 0 24 24">
  <path d="M15.91 22.5H4.34a1.88 1.88 0 0 1-1.395-.621 1.877 1.877 0 0 1-.468-1.457l1-9.207a6.683 6.683 0 0 1 7.136-5.945 6.683 6.683 0 0 1 6.16 5.945l1 9.207a1.877 1.877 0 0 1-.468 1.457 1.88 1.88 0 0 1-1.395.621zm0 0" fill="#e3e4e2"/>
  <path d="M8.594 6.375L7.28 1.5h5.625l-1.41 4.875zm0 0" fill="#e3e4e2"/>
  <path d="M19.68 22.5h-6.36a1.874 1.874 0 0 1-1.863-2.063l.508-5.082A4.56 4.56 0 0 1 16.5 11.25a4.56 4.56 0 0 1 4.535 4.105l.508 5.082A1.874 1.874 0 0 1 19.68 22.5zm0 0" fill="#0093b9"/>
  <path d="M15.582 11.969l-.957-3.344h3.75l-.957 3.344zm0 0" fill="#0093b9"/>
  <path d="M10.332 16.094l-.957-3.344h3.75l-.957 3.344zm0 0" fill="#56c3c1"/>
  <path d="M13.555 22.5h-4.61c-.55 0-1.07-.238-1.425-.656a1.878 1.878 0 0 1-.426-1.512l.254-1.625a3.953 3.953 0 0 1 3.422-3.3c.32-.044.64-.044.96 0a3.953 3.953 0 0 1 3.422 3.3l.254 1.625a1.878 1.878 0 0 1-.426 1.512 1.866 1.866 0 0 1-1.425.656zm0 0" fill="#56c3c1"/>
  <path d="M15.523 18.648a4.325 4.325 0 0 0-2.734-3.363l.695-2.433a.365.365 0 0 0-.058-.329.377.377 0 0 0-.301-.148h-3.75a.377.377 0 0 0-.3.148.365.365 0 0 0-.06.329l.696 2.433a4.325 4.325 0 0 0-2.734 3.363l-.254 1.625a2.243 2.243 0 0 0 .511 1.813c.426.5 1.051.789 1.711.789h4.61c.66 0 1.285-.29 1.71-.79.43-.5.614-1.16.512-1.812zm-5.652-5.523h2.758l-.559 1.953a4.293 4.293 0 0 0-1.64 0zm4.824 8.473a1.49 1.49 0 0 1-1.14.527h-4.61a1.503 1.503 0 0 1-1.484-1.734l.258-1.625a3.573 3.573 0 0 1 2.738-2.926L9.07 17.78l.61.438 1.195-1.672v1.828h.75v-1.828l1.195 1.672.61-.438-1.387-1.941a3.573 3.573 0 0 1 2.738 2.926l.258 1.625c.066.433-.059.875-.344 1.207zm0 0"/>
  <path d="M21.41 15.316a4.94 4.94 0 0 0-3.36-4.191l.684-2.398a.365.365 0 0 0-.058-.329.377.377 0 0 0-.301-.148h-3.75a.377.377 0 0 0-.3.148.365.365 0 0 0-.06.329l.684 2.398c-.46.152-.894.371-1.289.648l.43.614c.453-.32.969-.547 1.512-.664l-1.637 1.91.57.484 1.59-1.851v2.359h.75v-2.36l1.59 1.852.57-.484-1.637-1.91a4.169 4.169 0 0 1 3.266 3.668l.508 5.086a1.5 1.5 0 0 1-1.492 1.648h-3.555v.75h3.555c.633 0 1.238-.27 1.668-.738a2.259 2.259 0 0 0 .57-1.735zM15.121 9h2.758l-.559 1.945a4.843 4.843 0 0 0-1.644 0zm0 0"/>
  <path d="M20.816 11.04a6.523 6.523 0 0 0-1.527-1.032l-.328.676a5.699 5.699 0 0 1 3.168 4.34l.742-.106a6.433 6.433 0 0 0-2.055-3.879zm0 0M3.223 21.625a1.502 1.502 0 0 1-.375-1.16l1-9.211a6.307 6.307 0 0 1 5.468-5.578L7.203 8.395l.594.46L9.75 6.344V9.75h.75V6.344l1.953 2.511.594-.46-2.113-2.72c1.449.192 2.789.876 3.793 1.942l.546-.515a7.078 7.078 0 0 0-3.046-1.903l1.039-3.594a.373.373 0 0 0-.36-.48H7.281a.37.37 0 0 0-.297.148.37.37 0 0 0-.066.325l.98 3.636a7.043 7.043 0 0 0-4.793 5.942l-1.003 9.207a2.27 2.27 0 0 0 .562 1.746c.43.473 1.035.746 1.676.746h2.035v-.75H4.34c-.426 0-.832-.18-1.117-.5zM7.77 1.875h4.636L11.5 5.012a7.075 7.075 0 0 0-2.879.023zm0 0"/>
  <path d="M2.36 11.094a7.822 7.822 0 0 1 3.113-5.438l-.446-.601a8.568 8.568 0 0 0-3.414 5.957l-.226 2.074.746.078zm0 0M1.223 14.586l.082-.75.746.078-.082.75zm0 0"/>
 </symbol>

<!-- organic -->
 <symbol id="organic" viewBox="0 0 24 24">
  <path d="M14.813 12.703c0-2.336 1.265-3.515 2.812-3.515H6.375c1.547 0 2.813 1.18 2.813 3.515 0 2.32-1.25 3.5-2.797 3.516h11.218c-1.547-.016-2.797-1.196-2.797-3.516zm0 0" fill="#fce8d0"/>
  <path d="M18.906 23.156l-3.144-.086 1.953-2.46c.094.195 1.043 2.234 1.191 2.546zm0 0" fill="#b3f1ff"/>
  <path d="M17.625 9.188h-4.219c-.777 0-1.406.628-1.406 1.406 0-.778-.629-1.406-1.406-1.406H6.375c0-1.547 1.574-2.813 3.516-2.813.789 0 1.52.21 2.109.563a4.131 4.131 0 0 1 2.11-.563c1.94 0 3.515 1.266 3.515 2.813zm0 0M17.61 16.219h.015c0 1.547-1.574 2.812-3.516 2.812-.789 0-1.52-.21-2.109-.562-.59.351-1.32.562-2.11.562-1.94 0-3.515-1.265-3.515-2.812h4.219c.777 0 1.406-.63 1.406-1.407 0 .778.629 1.407 1.406 1.407zm0 0" fill="#ff7d97"/>
  <path d="M8.238 1.21L6.285 3.673c-.094-.195-1.043-2.235-1.191-2.547zm0 0" fill="#b3f1ff"/>
  <path d="M13.406 4.031a.47.47 0 0 0 .469-.468.47.47 0 0 0-.469-.47c-1.035 0-1.875.84-1.875 1.876v1.226a4.693 4.693 0 0 0-1.64-.289c-2.196 0-3.985 1.473-3.985 3.282 0 .257.211.468.469.468 1.445 0 2.344 1.168 2.344 3.047 0 1.867-.895 3.035-2.332 3.047h-.012a.47.47 0 0 0-.469.469c0 1.808 1.79 3.281 3.985 3.281.75 0 1.472-.172 2.109-.496.637.324 1.36.496 2.11.496 2.195 0 3.984-1.473 3.984-3.281a.47.47 0 0 0-.469-.469h-.012c-1.437-.012-2.332-1.18-2.332-3.047 0-1.879.899-3.047 2.344-3.047a.47.47 0 0 0 .469-.469c0-1.808-1.79-3.28-3.985-3.28-.57 0-1.129.097-1.64.288V4.97a.94.94 0 0 1 .937-.938zm.703 14.532a3.67 3.67 0 0 1-1.87-.497.455.455 0 0 0-.477 0 3.67 3.67 0 0 1-1.871.497c-1.473 0-2.704-.805-2.985-1.875h3.688A1.87 1.87 0 0 0 12 16.05c.344.39.848.637 1.406.637h3.688c-.282 1.07-1.512 1.875-2.985 1.875zm.235-5.86c0 1.106.277 2.246 1.039 3.047h-1.977a.94.94 0 0 1-.937-.938.47.47 0 0 0-.469-.468.47.47 0 0 0-.469.469.94.94 0 0 1-.937.937H8.617c.766-.8 1.04-1.941 1.04-3.047 0-1.105-.274-2.246-1.04-3.047h1.977a.94.94 0 0 1 .937.938c0 .258.211.469.469.469a.47.47 0 0 0 .469-.47.94.94 0 0 1 .937-.937h1.977c-.766.801-1.04 1.942-1.04 3.047zm2.75-3.984h-3.688A1.87 1.87 0 0 0 12 9.355a1.87 1.87 0 0 0-1.406-.636H6.906c.282-1.07 1.512-1.875 2.985-1.875a3.67 3.67 0 0 1 1.87.496c.145.09.333.09.477 0a3.67 3.67 0 0 1 1.871-.496c1.473 0 2.704.804 2.985 1.875zm0 0"/>
  <path d="M12.77 0a.47.47 0 0 0-.489.45.473.473 0 0 0 .45.487C18.53 1.18 23.07 6.04 23.062 12c-.004 3.547-1.833 7.137-4.598 9.11l-.324-.7a.473.473 0 0 0-.793-.094l-1.953 2.465a.467.467 0 0 0 .355.758l3.156.086a.465.465 0 0 0 .422-.664l-.457-.988C21.875 19.906 23.996 16.023 24 12 24.008 5.71 19.254.273 12.77 0zm3.94 22.629l.903-1.137.547 1.176zm0 0M3.984 19.875a.47.47 0 0 1-.468.469.47.47 0 0 1-.47-.469.47.47 0 0 1 .47-.469.47.47 0 0 1 .468.469zm0 0M4.8 21.656A11.344 11.344 0 0 0 11.23 24h.02a.469.469 0 0 0 .02-.938A10.369 10.369 0 0 1 5.37 20.91a.473.473 0 0 0-.66.09.468.468 0 0 0 .09.656zm0 0M0 12c0 2.25.648 4.473 1.867 6.426a.472.472 0 0 0 .649.148.468.468 0 0 0 .148-.644A11.184 11.184 0 0 1 .937 12c0-3.55 1.708-6.816 4.594-8.832l.328.703a.473.473 0 0 0 .793.094L8.605 1.5A.467.467 0 0 0 8.25.742L5.11.656a.47.47 0 0 0-.407.211.459.459 0 0 0-.031.453l.457.989A11.71 11.71 0 0 0 0 12zM7.29 1.652L6.386 2.79 5.84 1.613zm0 0"/>
 </symbol>

<!-- etram -->
 <symbol id="etram" viewBox="0 0 24 24">
 <path d="M22.84 15.871l-.723 7.027a.772.772 0 0 1-.77.715h-5.535a.771.771 0 0 1-.769-.715l-.719-7.027zm0 0" fill="#e6e9ed"/>
 <path d="M23.613 14.71v.774a.39.39 0 0 1-.386.387h-9.293a.39.39 0 0 1-.387-.387v-.773c0-.215.176-.387.387-.387h9.293c.21 0 .386.172.386.387zm0 0" fill="#e6e9ed"/>
 <path d="M20.129 12.773l.387 1.551h-3.871l.386-1.55zm0 0" fill="#838f9b"/>
 <path d="M2.71 10.453v.387a.39.39 0 0 1-.386.387H.774a.39.39 0 0 1-.387-.387V4.645a.39.39 0 0 1 .386-.387h1.551a.39.39 0 0 1 .387.387zm0 0" fill="#b4dd7f"/>
 <path d="M12.387 10.453c0 .426.347.774.773.774h1.55V12a.779.779 0 0 1-.776.773H8.516A.775.775 0 0 1 7.742 12v-1.934h4.645l.093.016a.792.792 0 0 0-.093.371zm0 0M14.71 1.16v.774H7.743V1.16c0-.426.348-.773.774-.773h5.418c.425 0 .777.347.777.773zm0 0" fill="#838f9b"/>
 <path d="M14.71 10.066H7.743V1.934h6.969zm0 0" fill="#69d6f4"/>
 <path d="M7.742 11.227H5.805l-1.934-.774h-1.16V5.031h1.934l2.324-1.547h4.258a.775.775 0 0 1 .546 1.32.774.774 0 0 1-.546.227H8.516l-.774.774zm0 0M15.098 5.031a.775.775 0 0 1 0 1.551H13.16a.779.779 0 0 1-.773-.777c0-.211.086-.407.23-.543a.746.746 0 0 1 .543-.23zm0 0" fill="#f0d0b4"/>
 <path d="M15.098 6.582a.775.775 0 0 1 .547 1.32.774.774 0 0 1-.547.227H13.16a.775.775 0 0 1-.773-.774c0-.214.086-.406.23-.546a.743.743 0 0 1 .543-.227zm0 0M15.098 9.676c.425 0 .773.351.773.777 0 .211-.086.406-.226.543a.761.761 0 0 1-.547.23H13.16a.775.775 0 0 1-.68-1.144.735.735 0 0 1 .137-.176.746.746 0 0 1 .543-.23zm0 0" fill="#f0d0b4"/>
 <path d="M15.098 8.129a.775.775 0 0 1 .547 1.32.758.758 0 0 1-.547.227H13.16a.775.775 0 0 1-.773-.774c0-.21.086-.406.23-.547a.758.758 0 0 1 .543-.226zm0 0" fill="#f0d0b4"/>
 <path d="M23.227 13.934H20.82l-.39-1.547h-3.7l-.386 1.547h-2.41a.776.776 0 0 0-.774.777v.773c0 .426.348.774.774.774h.039l.683 6.668A1.168 1.168 0 0 0 15.812 24h5.536c.601 0 1.113-.473 1.156-1.063l.683-6.68h.04a.775.775 0 0 0 .773-.773v-.773a.776.776 0 0 0-.773-.777zm-5.891-.774h2.492l.192.774h-2.88zm4.398 9.707a.39.39 0 0 1-.386.36h-5.535a.392.392 0 0 1-.387-.368l-.676-6.601h7.66zm-7.8-7.383v-.773h9.293v.773zm0 0"/>
 <path d="M16.645 17.418h.773v4.648h-.773zm0 0M18.195 17.418h.774v4.648h-.774zm0 0M19.742 17.418h.774v4.648h-.774zm0 0M15.098 12v-.387a1.16 1.16 0 0 0 .859-1.937c.184-.203.3-.473.3-.774 0-.297-.116-.566-.3-.773.184-.207.3-.477.3-.774 0-.3-.116-.57-.3-.773.184-.207.3-.477.3-.777 0-.637-.519-1.16-1.16-1.16V1.16c0-.64-.523-1.16-1.163-1.16H8.516c-.641 0-1.16.52-1.16 1.16v1.938h-.504L4.527 4.645h-1.43a.775.775 0 0 0-.773-.774H.774A.775.775 0 0 0 0 4.645v6.195c0 .426.348.773.773.773h1.551a.775.775 0 0 0 .774-.773h.699l1.933.773h1.625V12c0 .64.52 1.16 1.16 1.16h5.419c.64 0 1.164-.52 1.164-1.16zm0-1.16H13.16a.39.39 0 0 1-.387-.387c0-.215.176-.387.387-.387h1.938c.21 0 .386.172.386.387a.39.39 0 0 1-.386.387zm.386-3.485a.388.388 0 0 1-.386.387H13.16a.388.388 0 0 1 0-.773h1.938c.21 0 .386.172.386.386zm0 1.547a.388.388 0 0 1-.386.387H13.16a.388.388 0 0 1-.387-.387.39.39 0 0 1 .387-.386h1.938a.39.39 0 0 1 .386.386zm0-3.097c0 .215-.175.39-.386.39H13.16a.391.391 0 0 1-.387-.39.39.39 0 0 1 .387-.387h1.938a.39.39 0 0 1 .386.387zM8.516.773h5.418c.214 0 .39.176.39.387v.387H8.13V1.16a.39.39 0 0 1 .387-.387zm-.387 1.551h6.195v2.32H13.16c-.64 0-1.16.524-1.16 1.16 0 .301.117.571.3.778a1.15 1.15 0 0 0-.3.773c0 .297.117.567.3.774-.183.207-.3.476-.3.773 0 .301.117.57.3.774H8.13V5.965l.547-.547h2.55a1.16 1.16 0 0 0 0-2.32H8.13zM.773 10.84V4.645h1.551v6.195zm5.106 0l-1.934-.774h-.847V5.418h1.664l2.324-1.547h4.14a.388.388 0 0 1 0 .774h-2.87L5.53 7.469l.551.547 1.273-1.274v4.098zM8.129 12v-1.547H12c0 .64.52 1.16 1.16 1.16h1.164V12a.388.388 0 0 1-.39.387H8.516A.388.388 0 0 1 8.129 12zm0 0M18.445 6.941l.762-.132.133.761-.762.133zm0 0M17.766 5.473l.672-.387.386.668-.672.387zm0 0M16.625 4.32l.496-.593.594.5-.496.593zm0 0M18.582 8.516v1.386l-.5-.5-.55.547 1.437 1.438 1.433-1.438-.547-.547-.5.5V8.516zm0 0"/>
 </symbol>

<!-- cardboard  -->
<symbol id="cardboard" viewBox="0 0 24 24">
  <path d="M1.125 1.125h15.75v17.25H1.125zm0 0" fill="#ffc431"/>
  <path d="M1.125 1.125h15.75v6H1.125zm0 0" fill="#ffb401"/>
  <path d="M6.75 1.125V10.5l1.125-1.125L9 10.5l1.125-1.125L11.25 10.5V1.125zm0 0" fill="#ffd873"/>
  <path d="M22.875 16.875c0 3.313-2.688 6-6 6-3.313 0-6-2.688-6-6 0-3.313 2.688-6 6-6 3.313 0 6 2.688 6 6zm0 0" fill="#93ad10"/>
  <path d="M6.75 1.125h4.5v6h-4.5zm0 0" fill="#ffcc4d"/>
  <path d="M16.875 13.5a3.376 3.376 0 1 0 .002 6.752 3.376 3.376 0 0 0-.002-6.752zm0 4.5a1.125 1.125 0 1 1 0-2.25 1.125 1.125 0 0 1 0 2.25zm0 0" fill="#c1d439"/>
  <path d="M20.25 16.875l-1.125.75-1.125-.75a1.125 1.125 0 0 0-2.25 0l-1.125-.75-1.125.75a3.376 3.376 0 0 1 6.75 0zm0 0" fill="#d9eb5e"/>
  <path d="M1.125 18.75H9.75V18H1.5V7.5h4.875v3a.375.375 0 0 0 .64.266l.86-.86.86.86a.38.38 0 0 0 .53 0l.86-.86.86.86a.375.375 0 1 0 .64-.266v-3H16.5v2.25h.75V1.125a.375.375 0 0 0-.375-.375H1.125a.375.375 0 0 0-.375.375v17.25c0 .207.168.375.375.375zm9.75-9.156l-.484-.485a.38.38 0 0 0-.532 0L9 9.97l-.86-.86a.38.38 0 0 0-.53 0l-.485.485V7.5h3.75zM7.125 6.75V1.5h3.75v5.25zm9.375 0h-4.875V1.5H16.5zM6.375 1.5v5.25H1.5V1.5zm0 0"/>
  <path d="M2.25 8.25h1.875V9H2.25zm0 0M4.875 8.25h.75V9h-.75zm0 0M2.25 9.75h3.375v.75H2.25zm0 0M12.375 9.75h2.25v.75h-2.25zm0 0M13.875 8.25h1.875V9h-1.875zm0 0M12.375 8.25h.75V9h-.75zm0 0M2.25 16.875c0 .207.168.375.375.375h6A.375.375 0 0 0 9 16.875v-1.5A.375.375 0 0 0 8.625 15h-6a.375.375 0 0 0-.375.375zm3-.375H4.5v-.75h.75zm.75-.75h.75v.75H6zm2.25.75H7.5v-.75h.75zM3 15.75h.75v.75H3zm0 0M10.5 16.875a6.382 6.382 0 0 0 6.375 6.375 6.382 6.382 0 0 0 6.375-6.375 6.382 6.382 0 0 0-6.375-6.375 6.382 6.382 0 0 0-6.375 6.375zm12 0a5.626 5.626 0 0 1-5.625 5.625 5.626 5.626 0 0 1-5.625-5.625 5.626 5.626 0 0 1 5.625-5.625 5.631 5.631 0 0 1 5.625 5.625zm0 0"/>
  <path d="M16.875 19.875a3.002 3.002 0 0 1-2.992-2.805l.742-.496.766.512c.078.547.449 1.008.968 1.2.52.187 1.102.077 1.516-.294l-.5-.558a.742.742 0 0 1-.805.125.743.743 0 0 1-.445-.684.375.375 0 0 0-.168-.313l-1.125-.75a.38.38 0 0 0-.414 0l-1.125.75a.375.375 0 0 0-.168.313 3.754 3.754 0 0 0 2.66 3.59 3.753 3.753 0 0 0 4.207-1.508l-.62-.414a3.004 3.004 0 0 1-2.497 1.332zm0 0M13.758 14.793l.62.414a3.008 3.008 0 0 1 3.274-1.23 2.998 2.998 0 0 1 2.215 2.703l-.742.496-.766-.512a1.504 1.504 0 0 0-.968-1.2 1.504 1.504 0 0 0-1.516.294l.5.558a.742.742 0 0 1 .805-.125.743.743 0 0 1 .445.684c0 .125.063.242.168.313l1.125.75a.38.38 0 0 0 .414 0l1.125-.75a.375.375 0 0 0 .168-.313 3.754 3.754 0 0 0-2.66-3.59 3.753 3.753 0 0 0-4.207 1.508zm0 0"/>
</symbol>

<!-- paper -->
<symbol id="paper" viewBox="0 0 24 24">
  <path d="M20.898 18.766H8.305a.834.834 0 0 1-.832-.836V1.184c0-.457.37-.832.832-.832h9.105a4.32 4.32 0 0 1 4.32 4.324V17.93c0 .46-.37.836-.832.836zm0 0" fill="#e0f7ff"/>
  <path d="M13.242.352H8.305a.833.833 0 0 0-.832.832V17.93c0 .46.37.836.832.836h12.593c.461 0 .832-.375.832-.836v-3.528c-6.085-.699-8.753-10.242-8.488-14.05zm0 0" fill="#bdecff"/>
  <path d="M18.617 4.441a5.988 5.988 0 0 1 3.113.235A4.32 4.32 0 0 0 17.41.352c.352 1 .43 2.074.23 3.117a.831.831 0 0 0 .977.972zm0 0" fill="#7fafe3"/>
  <path d="M15.695 23.648H3.102a.833.833 0 0 1-.832-.832V6.07c0-.46.37-.836.832-.836h9.101a4.324 4.324 0 0 1 4.324 4.325v13.257a.833.833 0 0 1-.832.832zm0 0" fill="#e0f7ff"/>
  <path d="M6.223 5.234H3.102a.834.834 0 0 0-.832.836v16.746c0 .457.37.832.832.832h11.75C4.035 22.035 5.965 10.594 6.222 5.234zm0 0" fill="#bdecff"/>
  <path d="M7.203 20.316c0-.562-.574-1.023-1.281-1.023-.711 0-1.285.46-1.285 1.023s.574 1.024 1.285 1.024c.707 0 1.281-.461 1.281-1.024zm0 0M14.156 20.316c0-.562-.574-1.023-1.281-1.023s-1.281.46-1.281 1.023.574 1.024 1.281 1.024 1.281-.461 1.281-1.024zm0 0" fill="#ea7786"/>
  <path d="M13.41 9.328a5.999 5.999 0 0 1 3.117.23 4.324 4.324 0 0 0-4.324-4.324 6 6 0 0 1 .235 3.118.832.832 0 0 0 .972.976zm0 0" fill="#7fafe3"/>
  <path d="M8.285 16.223H6.59a1.094 1.094 0 1 1-.95-1.64l1.407-2.435a.352.352 0 1 1 .61.352L6.25 14.934a.391.391 0 0 0 .34.586h1.695a.35.35 0 0 1 .352.351.35.35 0 0 1-.352.352zm0 0M12.207 16.223H9.398a.35.35 0 0 1-.351-.352.35.35 0 0 1 .351-.351h2.809a.39.39 0 0 0 .34-.586l-.938-1.621a.352.352 0 1 1 .61-.352l.933 1.621c.2.344.2.75 0 1.094-.195.344-.55.547-.945.547zm0 0M11.445 12.676a.352.352 0 0 1-.304-.176l-1.407-2.43a.374.374 0 0 0-.336-.195.38.38 0 0 0-.34.195l-.933 1.617a.352.352 0 1 1-.61-.351l.934-1.617c.2-.344.555-.547.95-.547.394 0 .75.203.945.547l1.406 2.43a.352.352 0 0 1-.305.527zm0 0" fill="#60c28e"/>
  <path d="M10.523 17.195a.348.348 0 0 1-.207-.07l-1.027-.766a.61.61 0 0 1 0-.976l1.027-.766a.355.355 0 0 1 .493.074.355.355 0 0 1-.075.493l-.921.687.921.688c.157.117.188.34.075.492a.355.355 0 0 1-.286.144zm0 0M11.316 12.71a.556.556 0 0 1-.238-.05l-1.176-.504a.347.347 0 0 1-.183-.46.347.347 0 0 1 .46-.184l1.06.453.136-1.145a.347.347 0 0 1 .39-.304.349.349 0 0 1 .305.39l-.148 1.27a.605.605 0 0 1-.3.453.605.605 0 0 1-.306.082zm0 0M7.629 14.137a.354.354 0 0 1-.352-.309l-.132-1.144-1.06.457a.352.352 0 0 1-.46-.188.35.35 0 0 1 .184-.46l1.171-.505a.612.612 0 0 1 .848.488l.149 1.27a.351.351 0 0 1-.309.39h-.04zm0 0" fill="#60c28e"/>
  <path d="M12.207 16.223H9.398a.35.35 0 0 1-.351-.352.35.35 0 0 1 .351-.351h2.809a.39.39 0 0 0 .34-.586l-.852-1.47a.352.352 0 1 1 .61-.352l.847 1.47c.2.344.2.75 0 1.094-.195.344-.55.547-.945.547zm0 0" fill="#60c28e"/>
  <path d="M21.73 6.133c.196 0 .352-.16.352-.352V4.676A4.678 4.678 0 0 0 17.41 0H8.305C7.652 0 7.12.531 7.12 1.184v3.699h-4.02c-.652 0-1.183.531-1.183 1.187v14.774a.35.35 0 0 0 .352.351.353.353 0 0 0 .351-.351V6.07c0-.265.215-.484.48-.484h8.848c.266.875.313 1.8.14 2.7-.073.386.052.78.329 1.062.277.277.672.398 1.059.324a5.687 5.687 0 0 1 2.699.14v13.004a.48.48 0 0 1-.48.48H3.101a.48.48 0 0 1-.48-.48v-.32a.353.353 0 0 0-.352-.351.35.35 0 0 0-.352.351v.32c0 .653.531 1.184 1.184 1.184h12.593c.653 0 1.184-.531 1.184-1.184v-3.699h4.02c.652 0 1.183-.531 1.183-1.187V7.445a.35.35 0 0 0-.352-.351.353.353 0 0 0-.351.351V17.93a.483.483 0 0 1-.48.484h-4.02v-3.016h2.168a.35.35 0 0 0 .351-.351.353.353 0 0 0-.351-.352h-2.168v-1.629h2.168c.195 0 .351-.16.351-.351a.35.35 0 0 0-.351-.352h-2.168V10.73h2.168c.195 0 .351-.16.351-.351a.35.35 0 0 0-.351-.352h-2.168V9.56a4.681 4.681 0 0 0-4.676-4.676H7.824v-3.7a.48.48 0 0 1 .48-.48h8.848c.266.871.317 1.8.141 2.7a1.192 1.192 0 0 0 1.39 1.386 5.673 5.673 0 0 1 2.696.14v.852c0 .192.16.352.351.352zm-5.585 2.941a6.376 6.376 0 0 0-2.797-.094.47.47 0 0 1-.434-.132.472.472 0 0 1-.133-.43c.18-.93.145-1.887-.094-2.8a3.973 3.973 0 0 1 3.458 3.456zm2.406-4.976a.473.473 0 0 1-.434-.133.475.475 0 0 1-.133-.43c.18-.93.145-1.89-.093-2.8a3.98 3.98 0 0 1 3.46 3.456 6.337 6.337 0 0 0-2.8-.093zm-6.07 15.199v-.453a.353.353 0 0 0-.352-.352.35.35 0 0 0-.352.352v.453a.35.35 0 0 0 .352.351.353.353 0 0 0 .351-.351zm-5.461 0v-.453a.35.35 0 0 0-.352-.352.35.35 0 0 0-.352.352v.453a.35.35 0 0 0 .352.351.35.35 0 0 0 .352-.351zm2.378.7c.375 0 .735-.165.985-.45a.349.349 0 0 0-.035-.496.356.356 0 0 0-.496.035.597.597 0 0 1-.907 0 .356.356 0 0 0-.496-.035.349.349 0 0 0-.035.496 1.3 1.3 0 0 0 .984.45zm0 0"/>
</symbol>

<!-- textile -->
<symbol id="textile" viewBox="0 0 24 24">
 <path d="M16.258 3.871h5.031a2.322 2.322 0 0 1 2.324 2.324v5.418h-4.258v12H4.645v-12H.387V6.195A2.322 2.322 0 0 1 2.71 3.871h5.031" fill="#d1a339"/>
 <path d="M7.742 3.871H2.711A2.322 2.322 0 0 0 .387 6.195v5.418h4.258V20.5c.19.012.386.016.582.016 6.734 0 12.191-5.891 12.191-13.16 0-1.208-.152-2.376-.434-3.485zm0 0" fill="#f0d365"/>
 <path d="M4.645 22.066h14.71v1.547H4.645zm0 0M7.742 1.938v3.867h2.711L12 7.742l1.547-1.937h2.71V1.938L14.712.387H9.289zm0 0" fill="#568e53"/>
 <path d="M16.258 1.938L14.71.387v5.418h1.547zm0 0M7.742 1.938L9.29.387v5.418H7.742zm0 0" fill="#7ecb92"/>
 <path d="M12 8.129a.385.385 0 0 1-.3-.145l-1.434-1.789H7.742a.388.388 0 0 1-.387-.39V1.938c0-.106.04-.204.114-.278L9.016.113a.385.385 0 0 1 .421-.082c.145.059.239.2.239.356v5.031h.777c.117 0 .227.055.3.148L12 7.121l1.246-1.555a.383.383 0 0 1 .3-.148h.778V.387c0-.157.094-.297.239-.356a.385.385 0 0 1 .421.082l1.547 1.547a.387.387 0 0 1 .114.278v3.867c0 .215-.172.39-.387.39h-2.524l-1.433 1.79a.385.385 0 0 1-.301.144zm3.098-2.711h.773v-3.32l-.773-.778zm-6.97 0h.774V1.32l-.773.778zm0 0"/>
 <path d="M9.29 0h5.42v.773H9.29zm0 0M4.645 12H.387A.385.385 0 0 1 0 11.613V6.195a2.712 2.712 0 0 1 2.71-2.71h5.032v.773H2.711A1.94 1.94 0 0 0 .773 6.195v5.032h3.872zm0 0"/>
 <path d="M19.355 24H4.645a.385.385 0 0 1-.387-.387V7.355h.773v15.872H18.97V7.355h.773v16.258a.385.385 0 0 1-.387.387zm0 0"/>
 <path d="M23.613 12h-4.258v-.773h3.872V6.195c0-1.07-.868-1.937-1.938-1.937h-5.031v-.774h5.031A2.712 2.712 0 0 1 24 6.195v5.418a.385.385 0 0 1-.387.387zm0 0M4.645 21.676h14.71v.777H4.645zm0 0M10.84 16.645H9.422a1.292 1.292 0 0 1-1.102-1.97l1.028-1.667.66.406-1.028 1.668a.514.514 0 0 0 .442.79h1.418zm0 0M13.66 12.871l-1.398-2.273c-.114-.18-.41-.18-.524 0l-.988 1.605-.656-.406.988-1.606c.195-.316.547-.515.918-.515s.723.199.918.515l1.402 2.274zm0 0M14.578 16.645H12v-.774h2.578c.285 0 .52-.234.52-.52a.514.514 0 0 0-.078-.269l-.579-.945.657-.407.582.946a1.29 1.29 0 0 1-1.102 1.969zm0 0"/>
 <path d="M10.105 14.883l-.64-1.285-1.649.332-.152-.762 1.938-.387a.385.385 0 0 1 .421.207l.774 1.547zm0 0M13.938 13.16c-.028 0-.051 0-.079-.008l-1.933-.386.152-.758 1.645.328.64-1.281.692.343-.774 1.551a.385.385 0 0 1-.344.211zm0 0M12.887 17.691l-1.16-1.16a.384.384 0 0 1 0-.547l1.16-1.16.547.547-.887.887.887.887zm0 0"/>
 </symbol>

</svg>