<svg id="organic" enable-background="new 0 0 512 512" height="512" viewBox="0 0 24 24" width="512" xmlns="http://www.w3.org/2000/svg"><g><path d="m286 86c5.522 0 10-4.477 10-10s-4.478-10-10-10c-22.056 0-40 17.944-40 40v26.193c-10.954-4.073-22.812-6.193-35-6.193-46.869 0-85 31.402-85 70 0 5.523 4.477 10 10 10 30.841 0 50 24.907 50 65 0 39.808-19.073 64.713-49.777 65h-.223c-5.523 0-10 4.477-10 10 0 38.598 38.131 70 85 70 16.001 0 31.437-3.644 45-10.581 13.563 6.937 28.999 10.581 45 10.581 46.869 0 85-31.402 85-70 0-5.523-4.478-10-10-10h-.223c-30.704-.287-49.777-25.192-49.777-65 0-40.093 19.159-65 50-65 5.522 0 10-4.477 10-10 0-38.598-38.131-70-85-70-12.188 0-24.046 2.12-35 6.193v-26.193c0-11.028 8.972-20 20-20zm15 310c-14.451 0-28.243-3.663-39.885-10.593-3.152-1.876-7.078-1.876-10.23 0-11.642 6.93-25.434 10.593-39.885 10.593-31.39 0-57.653-17.205-63.692-40h78.692c11.938 0 22.665-5.264 30-13.585 7.335 8.321 18.062 13.585 30 13.575h78.692c-6.039 22.804-32.302 40.01-63.692 40.01zm5-125c0 23.606 5.878 47.952 22.195 65h-42.195c-11.028 0-20-8.972-20-20 0-5.523-4.478-10-10-10s-10 4.477-10 10c0 11.028-8.972 20-20 20h-42.195c16.321-17.051 22.195-41.402 22.195-65 0-23.548-5.836-47.903-22.145-65h42.145c11.028 0 20 8.972 20 20 0 5.523 4.478 10 10 10s10-4.477 10-10c0-11.028 8.972-20 20-20.01h42.145c-16.304 17.102-22.145 41.453-22.145 65.01zm58.678-85h-78.678c-11.938 0-22.665 5.264-30 13.585-7.335-8.321-18.062-13.585-30-13.585h-78.679c6.042-22.792 32.291-40 63.679-40 14.451 0 28.243 3.663 39.885 10.593 3.152 1.876 7.078 1.876 10.23 0 11.642-6.93 25.434-10.593 39.885-10.593 31.388 0 57.637 17.208 63.678 40z"/><path d="m272.439.008c-5.501-.218-10.179 4.053-10.411 9.571s4.053 10.18 9.571 10.412c123.73 5.205 220.542 108.868 220.401 235.998-.081 75.717-39.081 152.292-98.042 194.345l-6.955-14.912c-1.465-3.141-4.451-5.299-7.893-5.704-3.444-.406-6.848 1-9.003 3.714l-41.7 52.54c-2.354 2.967-2.831 7.01-1.23 10.443 1.602 3.433 5.004 5.667 8.791 5.77 0 0 67.241 1.834 67.333 1.834 3.362 0 6.508-1.692 8.359-4.513 1.901-2.897 2.167-6.573.702-9.714l-9.82-21.055c64.163-44.101 109.366-126.9 109.458-212.727.149-134.207-101.289-250.185-239.561-256.002zm84.069 482.731 19.208-24.201 11.682 25.044z"/><circle cx="75" cy="424" r="10"/><path d="m102.4 461.99c40.059 30.621 87.488 47.911 137.16 50.001.143.006.286.009.428.009 5.329 0 9.758-4.205 9.983-9.58.232-5.518-4.053-10.179-9.57-10.412-45.552-1.917-89.072-17.791-125.855-45.908-4.387-3.354-10.664-2.516-14.018 1.872s-2.516 10.664 1.872 14.018z"/><path d="m0 256.003c.016 48.02 13.795 95.42 39.85 137.076 2.929 4.682 9.098 6.105 13.781 3.175 4.683-2.929 6.104-9.099 3.175-13.781-24.064-38.473-36.792-82.209-36.806-126.477-.027-75.783 36.403-145.384 98.015-188.39l6.983 14.971c1.465 3.14 4.452 5.299 7.893 5.704 3.431.406 6.844-.995 9.002-3.714l41.7-52.54c2.354-2.967 2.831-7.01 1.23-10.443s-5.004-5.667-8.79-5.77l-67.06-1.83c-3.481-.091-6.731 1.611-8.633 4.509s-2.168 6.573-.703 9.714l9.813 21.037c-69.768 47.391-109.479 125.412-109.45 206.759zm155.492-220.743-19.208 24.202-11.682-25.045z"/></g></svg>